<svg width="590" height="612" viewBox="0 0 590 612" fill="none" xmlns="http://www.w3.org/2000/svg">
<path style="mix-blend-mode:multiply" opacity="0.52" d="M388.209 511.279H184.594C134.536 511.279 93.9824 470.671 93.9824 420.582V216.829C93.9396 196.788 100.561 177.302 112.803 161.44C96.1696 178.371 86.8608 201.17 86.8875 224.912V428.684C86.8875 478.772 127.468 519.358 177.522 519.358H381.154C395.018 519.37 408.699 516.194 421.141 510.075C433.583 503.956 444.454 495.058 452.915 484.068C444.488 492.693 434.422 499.544 423.31 504.217C412.197 508.89 400.262 511.291 388.209 511.279ZM406.884 246.384C391.724 247.087 392.06 247.032 390.342 247.173L399.313 221.526C398.86 221.684 371.246 231.849 364.192 233.68C345.535 216.906 317.808 213.442 297.982 225.629C292.912 228.722 288.591 232.903 285.332 237.87C287.079 236.343 288.951 234.966 290.928 233.753C310.758 221.562 338.499 225.021 357.138 241.805C364.192 239.991 391.829 229.804 392.259 229.645L383.279 255.274C384.996 255.134 384.661 255.188 399.82 254.486C399.784 254.54 382.817 277.83 376.832 285.818C373.847 289.812 372.356 295.008 372.637 300.457C374.209 331.35 371.581 362.546 353.731 386.144C377.947 361.898 381.449 326.939 379.691 292.365C379.41 286.924 380.896 281.72 383.886 277.721C389.876 269.728 406.838 246.438 406.884 246.384ZM280.004 273.981C251.389 268.54 215.991 254.082 196.705 230.91L190.058 222.922L185.075 232.053C184.912 232.352 184.748 232.656 184.594 232.96L189.632 239.017C210.663 264.265 251.398 280.31 282.999 284.716C282.537 281.543 281.522 278.614 280.004 273.981Z" fill="url(#paint0_radial_182_18545)"/>
<path d="M480.198 216.829C480.208 205.11 477.972 193.498 473.61 182.622C473.61 182.59 473.61 182.559 473.588 182.522C473.552 182.409 473.502 182.301 473.438 182.2C469.128 171.643 462.898 161.977 455.067 153.693L455.039 153.634C454.927 153.448 454.771 153.293 454.586 153.18C445.601 143.781 434.734 136.385 422.695 131.477C422.574 131.408 422.443 131.357 422.306 131.328C411.467 126.986 399.897 124.761 388.222 124.772H184.594C167.387 124.752 150.523 129.59 135.94 138.731C135.774 138.79 135.621 138.879 135.487 138.994C135.472 139.012 135.455 139.029 135.437 139.044C122.696 147.15 112.126 158.249 104.647 171.374C104.519 171.518 104.424 171.688 104.367 171.873C97.6611 183.801 93.7177 197.083 92.8271 210.74C92.8224 210.81 92.8224 210.879 92.8271 210.949C92.8271 210.949 92.8271 210.98 92.8271 210.994C92.7047 212.925 92.6368 214.87 92.6368 216.833V420.583C92.6305 425.916 93.0852 431.241 93.996 436.496C93.996 436.528 93.996 436.555 93.996 436.582V436.627C96.4828 450.7 102.223 463.996 110.759 475.454C110.809 475.566 110.871 475.673 110.945 475.771C111.006 475.847 111.076 475.916 111.153 475.975C118.985 486.347 128.909 494.956 140.281 501.242C140.379 501.326 140.489 501.396 140.607 501.45C140.645 501.465 140.685 501.477 140.725 501.486C154.178 508.823 169.259 512.658 184.581 512.639H388.204C398.37 512.647 408.466 510.962 418.079 507.652H418.197C418.267 507.625 418.335 507.593 418.4 507.557C430.337 503.384 441.286 496.795 450.568 488.203C450.641 488.164 450.711 488.119 450.776 488.067C450.872 487.982 450.956 487.885 451.025 487.777C460.793 478.634 468.459 467.476 473.492 455.075C473.567 454.95 473.622 454.814 473.656 454.671C477.98 443.837 480.196 432.276 480.184 420.61L480.198 216.829ZM97.1629 438.699L116.291 447.826L111.307 471.564C104.416 461.681 99.6042 450.5 97.1629 438.699ZM95.3189 216.829C95.3189 215.609 95.3506 214.399 95.3959 213.202L116.853 224.967L95.3189 244.113V216.829ZM106.065 174.362L127.608 191.807L95.6995 208.582C96.7979 196.589 100.325 184.946 106.065 174.362ZM470.144 181.375L437.723 178.655L453.984 156.485C460.714 163.826 466.176 172.238 470.144 181.375ZM477.457 214.956L446.844 205.127L471.68 185.156C475.3 194.685 477.254 204.765 477.457 214.956ZM387.846 468.069L404.609 467.534L396.418 483.601L387.846 468.069ZM191.553 469.342L215.837 467.683L200.936 484.254L191.553 469.342ZM163.731 465.716L185.419 468.971L166.843 480.908L163.731 465.716ZM118.969 444.226L116.703 416.434L136.638 428.267L118.969 444.226ZM126.381 269.225L127.985 270.943L120.4 301.038L96.592 284.354L126.381 269.225ZM420.847 162.307L432.323 178.175L409.557 175.98L420.847 162.307ZM406.163 464.754L390.981 465.249L416.212 450.682L406.163 464.754ZM342.096 484.249L327.145 464.668L357.641 464.092L342.096 484.249ZM288.671 461.531L321.051 464.423L299.06 482.957L288.671 461.531ZM270.59 480.237L256.545 465.063L283.538 461.69L270.59 480.237ZM179.402 205.318L149.849 209.956L165.937 185.02L179.402 205.318ZM253.5 181.389L226.108 176.139L241.259 153.393L253.5 181.389ZM271.623 153.906L288.68 178.043L258.099 181.575L271.623 153.906ZM311.465 156.172L327.775 177.771H293.977L311.465 156.172ZM391.344 174.874L394.887 188.022L380.715 197.139L391.344 174.874ZM443.4 278.696L443.976 306.673L422.682 294.886L443.4 278.696ZM219.054 462.85L208.181 439.928L231.083 435.92L219.054 462.85ZM189.433 465.017L180.272 441.524L203.75 440.377L189.433 465.017ZM224.196 180.115L241.653 206.896L214.886 205.735L224.196 180.115ZM330.081 181.597L339.292 204.062L311.655 201.183L330.081 181.597ZM378.749 440.159L397.048 418.678L393.935 435.136L378.749 440.159ZM324.209 461.372L302.132 442.186L338.73 441.025L324.209 461.372ZM286.188 457.822L270.014 441.691L296.142 442.245L286.188 457.822ZM161.044 407.471L143.461 395.339L164.207 389.817L161.044 407.471ZM188.323 222.496L169.349 236.188L181.767 209.439L188.323 222.496ZM320.716 216.711L311.655 203.921L337.289 206.592L320.716 216.711ZM317.898 217.436C312.007 218.11 306.276 219.798 300.958 222.423L309.041 204.946L317.898 217.436ZM297.483 223.466L279.347 208.55L306.481 204.017L297.483 223.466ZM278.645 205.903L291.331 181.656L306.341 201.296L278.645 205.903ZM295.68 225.506C290.162 229.216 285.617 234.2 282.428 240.037L278.047 210.999L295.68 225.506ZM277.077 272.571C268.249 271.268 259.56 269.157 251.117 266.264L279.021 248.03C276.697 255.334 275.999 263.621 277.077 272.571ZM242.876 232.502L217.129 223.144L242.876 210.55V232.502ZM241.517 234.905L222.189 250.773L215.647 225.493L241.517 234.905ZM243.17 237.067L246.455 264.555C238.503 261.497 230.887 257.629 223.725 253.012L243.17 237.067ZM245.816 236.283L278.437 245.142L249.174 264.315L245.816 236.283ZM280.081 242.766L247.094 233.812L275.184 210.287L280.081 242.766ZM245.594 231.527V209.702L272.325 209.135L245.594 231.527ZM214.927 221.195L214.397 208.432L238.862 209.498L214.927 221.195ZM212.236 221.947L194.294 221.626L211.719 209.534L212.236 221.947ZM212.598 224.668L219.167 249.907C211.206 244.223 204.007 237.54 197.747 230.022L192.994 224.323L212.598 224.668ZM186.008 227.506L183.897 231.387C178.623 240.988 176.224 251.907 176.987 262.837L167.623 240.799L186.008 227.506ZM180.571 268.898C178.138 256.798 180.177 243.963 186.302 232.688L190.276 225.325L195.64 231.772C202.817 240.388 211.192 247.93 220.508 254.168C220.595 254.242 220.689 254.306 220.789 254.359C229.121 259.891 238.075 264.423 247.465 267.86H247.524C257.528 271.509 267.895 274.071 278.446 275.5C278.655 275.528 278.867 275.508 279.067 275.44C279.267 275.373 279.448 275.259 279.596 275.11C279.745 274.96 279.856 274.778 279.922 274.579C279.988 274.379 280.007 274.166 279.977 273.958C278.419 263.204 279.488 253.42 282.931 245.205C282.956 245.154 282.979 245.101 282.999 245.047C286.165 237.453 291.649 231.055 298.666 226.767C317.871 214.956 345.036 218.284 363.254 234.674L363.29 234.696C363.343 234.74 363.399 234.779 363.458 234.814L363.557 234.873C363.627 234.908 363.7 234.935 363.775 234.955C363.8 234.966 363.826 234.975 363.852 234.982C363.954 235.009 364.059 235.023 364.165 235.023C364.226 235.027 364.289 235.027 364.35 235.023H364.418H364.491C370.154 233.549 388.548 226.912 397.039 223.815L389.019 246.747C388.943 246.961 388.921 247.191 388.957 247.415C388.992 247.64 389.083 247.852 389.221 248.033C389.359 248.213 389.541 248.356 389.749 248.448C389.956 248.54 390.184 248.579 390.41 248.56C391.439 248.474 391.724 248.461 395.231 248.306L404.075 247.907C399.653 253.969 387.624 270.444 382.781 276.923C379.609 281.167 378.015 286.684 378.314 292.447C378.844 302.874 378.993 314.208 377.861 325.633C377.788 325.838 377.766 326.057 377.797 326.272C377.042 334.257 375.525 342.152 373.267 349.848C373.253 349.874 373.241 349.901 373.23 349.929C373.23 349.961 373.23 349.993 373.199 350.025C373.167 350.056 373.199 350.074 373.176 350.102L373.135 350.287C368.881 364.192 361.659 377.308 349.744 388.044C329.293 406.478 297.012 416.384 259.721 416.384C255.861 416.384 251.937 416.266 247.973 416.053C247.873 416.03 247.772 416.018 247.669 416.017C247.611 416.01 247.551 416.01 247.493 416.017C239.827 415.585 232.012 414.749 224.047 413.51C218.099 412.523 212.244 411.036 206.545 409.067H206.518C197.684 406.028 189.117 402.264 180.902 397.814L168.964 388.629L181.649 385.573L181.758 385.546C188.522 383.32 194.335 381.692 199.459 380.26C207.302 378.061 214.075 376.179 221.768 372.902C222.008 372.799 222.213 372.63 222.36 372.414C222.506 372.198 222.587 371.944 222.594 371.683C222.6 371.422 222.531 371.165 222.395 370.942C222.259 370.719 222.062 370.54 221.827 370.426C212.376 365.847 195.767 355.864 190.711 340.504L187.666 331.255L193.384 330.906C193.645 330.89 193.895 330.798 194.105 330.643C194.316 330.488 194.477 330.276 194.57 330.031C194.662 329.787 194.683 329.521 194.628 329.265C194.574 329.009 194.447 328.775 194.263 328.589C191.82 326.121 189.629 323.416 187.72 320.515C183.579 314.222 176.747 302.044 177.504 291.15L178.496 283.243L183.992 284.966H184.033H184.132H184.236H184.336H184.44H184.545H184.644H184.744L184.839 284.934L184.939 284.898L185.034 284.853L185.12 284.803L185.224 284.726L185.278 284.689L185.378 284.59L185.428 284.535C185.464 284.494 185.491 284.449 185.523 284.408C185.532 284.397 185.54 284.385 185.546 284.372C185.582 284.312 185.614 284.25 185.641 284.186C185.643 284.168 185.643 284.15 185.641 284.132C185.641 284.086 185.673 284.036 185.686 283.991V283.919C185.688 283.875 185.688 283.831 185.686 283.787C185.688 283.76 185.688 283.733 185.686 283.706V283.583C185.684 283.554 185.684 283.526 185.686 283.497C185.686 283.456 185.686 283.415 185.686 283.375C185.68 283.345 185.673 283.317 185.664 283.288C185.654 283.25 185.641 283.212 185.627 283.175V283.134L182.189 275.064C181.518 273.046 180.972 270.988 180.553 268.903L180.571 268.898ZM374.123 439.447L361.673 417.191L380.701 416.217L374.123 439.447ZM383.547 416.067L396.232 415.414L377.539 437.362L383.547 416.067ZM358.755 412.785L345.843 395.511L364.029 389.898L358.755 412.785ZM367.032 388.992L388.023 382.536L361.913 411.207L367.032 388.992ZM356.802 414.716L332.99 415.868L343.768 397.243L356.802 414.716ZM330.217 415.169L322.515 407.974C328.4 405.578 334.06 402.662 339.428 399.261L330.217 415.169ZM319.715 409.103L326.964 415.877L299.631 415.006C306.464 413.547 313.178 411.574 319.715 409.103ZM288.612 417.377L326.579 418.583L299.105 438.862L288.612 417.377ZM296.4 439.529L269.466 438.958L286.116 418.461L296.4 439.529ZM330.036 419.413L339.264 438.287L302.915 439.438L330.036 419.413ZM332.668 418.606L356.549 417.445L341.666 437.004L332.668 418.606ZM362.651 414.417L389.509 384.948L381.467 413.474L362.651 414.417ZM367.739 385.927L375.124 353.946L390.32 378.981L367.739 385.927ZM364.735 386.834L350.115 391.349C350.614 390.896 351.112 390.479 351.606 390.039C358.837 383.532 364.824 375.764 369.275 367.112L364.735 386.834ZM380.42 327.442L416.072 328.548L376.655 347.808C376.873 347.005 377.109 346.203 377.294 345.382C378.741 339.484 379.786 333.495 380.42 327.456V327.442ZM383.089 324.804L403.024 309.747L418.328 325.901L383.089 324.804ZM380.824 323.103C381.567 313.886 381.635 303.735 381.05 292.274C380.956 290.478 381.071 288.676 381.395 286.906L401.152 307.761L380.824 323.103ZM385.005 286.766L417.213 295.638L403.336 306.111L385.005 286.766ZM383.972 283.656L410.966 266.405L418.292 293.113L383.972 283.656ZM409.285 250.007L419.252 257.882L412.61 262.13L409.285 250.007ZM410.191 263.662L383.569 280.677C383.982 279.925 384.447 279.202 384.96 278.514C389.83 272.013 401.855 255.542 406.295 249.453L410.191 263.662ZM407.409 243.46L401.175 222.967L422.337 223.897L407.409 243.46ZM405.071 245.115C400.224 245.341 397.161 245.477 395.154 245.568L392.3 245.7L399.222 225.914L405.071 245.115ZM399.182 219.558L398.053 218.493L400.255 218.284L399.182 219.558ZM204.819 434.329L184.168 402.547C190.855 405.916 197.753 408.847 204.819 411.32V434.329ZM169.933 313.637L186.484 326.091L167.555 342.521L169.933 313.637ZM185.374 321.852L171.157 311.121L177.626 306.814C179.67 312.087 182.275 317.124 185.396 321.839L185.374 321.852ZM189.551 328.399L187.852 328.503L188.708 327.76L189.551 328.399ZM184.839 331.142L188.192 341.324C188.878 343.392 189.746 345.395 190.788 347.309L169.159 344.747L184.839 331.142ZM197.343 378.016L195.146 353.833C201.444 361.626 210.183 367.434 217.994 371.514C211.547 374.053 205.566 375.726 198.771 377.63L197.343 378.016ZM167.283 347.282L190.915 350.083L167.283 383.674V347.282ZM192.319 352.808L194.684 378.782C190.584 379.947 186.076 381.275 181.002 382.939L169.109 385.805L192.319 352.808ZM177.785 398.794L163.871 407.095L166.866 390.393L177.785 398.794ZM176.707 304.157L168.982 309.303L149.704 290.012L175.742 283.27L174.835 290.828C174.833 290.851 174.833 290.873 174.835 290.896C174.523 295.289 175.325 299.841 176.707 304.157ZM164.85 342.24L149.161 322.845L167.247 313.401L164.85 342.24ZM164.565 384.639L141.137 360.964L164.565 348.034V384.639ZM178.727 401.414L177.187 435.276L163.822 410.3L178.727 401.414ZM181.364 403.228L203.75 437.684L179.738 438.853L181.364 403.228ZM207.537 413.351L230.326 433.3L207.537 437.289V413.351ZM211.905 413.56C215.776 414.67 219.709 415.548 223.684 416.189C229.706 417.132 236.9 418.003 244.906 418.551L233.239 432.212L211.905 413.56ZM247.697 419.454L263.218 438.246L235.921 433.227L247.697 419.454ZM250.727 418.846C253.691 418.969 256.74 419.041 259.866 419.041C267.67 419.053 275.468 418.611 283.221 417.717L266.666 438.119L250.727 418.846ZM359.258 418.393L372.089 441.329L343.999 438.445L359.258 418.393ZM384.339 413.279L392.177 385.505L397.682 412.59L384.339 413.279ZM377.344 352.373L403.019 357.895L392.34 377.064L377.344 352.373ZM378.667 349.879L418.301 330.507L404.405 355.415L378.667 349.879ZM405.221 308.11L418.989 297.719L420.09 323.802L405.221 308.11ZM413.376 264.886L420.172 260.556L419.234 286.167L413.376 264.886ZM408.782 246.148L423.198 227.261L420.48 255.397L408.782 246.148ZM402.145 220.306L418.826 200.503L423.307 221.236L402.145 220.306ZM400.636 217.872L398.026 190.724L417.299 198.096L400.636 217.872ZM397.958 218.388L379.637 201.111L395.326 191.018L397.958 218.388ZM377.942 203.246L396.776 221.004C390.433 223.33 374.218 229.197 366.498 231.595L377.942 203.246ZM363.798 231.037L343.999 206.682L375.296 202.543L363.798 231.037ZM341.113 207.431L356.277 226.096C346.962 220.373 336.284 217.253 325.356 217.06L341.113 207.431ZM308.905 200.177L293.881 180.514H327.408L308.905 200.177ZM275.904 205.254L258.434 184.272L288.721 180.777L275.904 205.254ZM273.313 206.392L246.369 206.964L256.114 185.737L273.313 206.392ZM244.018 205.563L226.724 179.027L253.817 184.218L244.018 205.563ZM190.557 220.9L183.937 207.752L208.752 208.292L190.557 220.9ZM165.715 237.566L149.36 212.798L179.402 208.07L165.715 237.566ZM166.354 244.82L179.633 275.998C180.086 277.358 180.585 278.718 181.142 280.011L161.497 267.575L166.354 244.82ZM176.471 280.274L149.976 287.138L160.396 270.104L176.471 280.274ZM166.535 310.704L148.413 320.166V292.578L166.535 310.704ZM163.844 345.328L140.856 358.022L147.792 325.484L163.844 345.328ZM163.305 387.242L141.558 393.027L140.407 364.093L163.305 387.242ZM159.721 409.847L140.385 425.107L141.522 397.284L159.721 409.847ZM161.579 411.846L175.556 437.956L141.798 427.483L161.579 411.846ZM264.578 441.256L253.623 461.449L236.325 436.061L264.578 441.256ZM266.992 442.508L283.475 458.974L256.21 462.383L266.992 442.508ZM298.901 442.997L320.367 461.649L288.757 458.811L298.901 442.997ZM341.489 441.809L357.604 461.39L327.1 461.984L341.489 441.809ZM360.363 460.466L344.565 441.27L372.075 444.09L360.363 460.466ZM393.015 438.3L385.313 463.009L376.397 443.791L393.015 438.3ZM395.96 437.983L417.802 446.597L387.9 463.852L395.96 437.983ZM400.35 415.722L421.336 423.366L396.921 433.912L400.35 415.722ZM400.273 411.805L394.302 382.409L423.57 398.88L400.273 411.805ZM405.801 358.493L418.763 361.282L396.196 375.713L405.801 358.493ZM407.187 356.009L420.326 332.434L420.865 358.97L407.187 356.009ZM422.845 324.695L421.699 297.438L442.915 309.226L422.845 324.695ZM421.708 292.202L422.859 260.715L442.49 275.957L421.708 292.202ZM426.157 224.795L449.557 237.113L423.23 255.247L426.157 224.795ZM425.831 220.08L421.395 199.537L441.371 206.197L425.831 220.08ZM419.751 195.221L409.489 178.705L432.405 180.908L419.751 195.221ZM406.68 179.353L416.276 194.768L398.792 188.081L406.68 179.353ZM377.602 197.379L370.39 177.395L389.251 172.952L377.602 197.379ZM368.088 178.977L375.577 199.764L344.982 203.808L368.088 178.977ZM341.883 203.178L332.509 180.351L365.247 178.011L341.883 203.178ZM212.521 204.28L195.758 183.465L221.759 178.841L212.521 204.28ZM210.083 205.585L183.865 205.019L193.556 185.07L210.083 205.585ZM181.541 203.595L168.465 183.892H191.118L181.541 203.595ZM121.56 225.094L145.423 214.023L141.93 244.906L121.56 225.094ZM147.987 215.646L163.803 239.593L144.571 245.863L147.987 215.646ZM164.098 242.358L159.223 265.194L145.31 248.483L164.098 242.358ZM146.832 287.06L130.975 270.145L131.12 269.574H157.533L146.832 287.06ZM144.861 288.937L123.309 300.621L130.195 273.283L144.861 288.937ZM145.699 291.576V319.712L123.762 303.468L145.699 291.576ZM138.033 358.221L117.492 341.71L145.078 325.198L138.033 358.221ZM137.653 363.417L138.804 392.342L117.51 379.621L137.653 363.417ZM137.653 425.701L117.564 413.773L138.785 397.606L137.653 425.701ZM172.869 440.005L145.939 445.482L140.996 430.094L172.869 440.005ZM175.311 442.272L161.828 461.948L147.783 447.894L175.311 442.272ZM177.998 443.179L187.086 466.477L164.37 463.068L177.998 443.179ZM206.088 441.846L217.006 464.877L191.635 466.609L206.088 441.846ZM233.638 436.949L251.307 462.873L221.279 464.641L233.638 436.949ZM374.29 445.663L383.27 465.022L362.819 461.703L374.29 445.663ZM398.656 436.142L423.221 425.529L419.868 444.525L398.656 436.142ZM402.58 413.66L424.861 401.292L423.742 421.376L402.58 413.66ZM395.018 379.716L421.16 363L424.725 396.431L395.018 379.716ZM423.602 358.444L423.031 330.394L443.654 348.166L423.602 358.444ZM423.76 327.433L444.08 311.746L444.66 345.445L423.76 327.433ZM446.703 306.623L446.114 277.925L475.744 288.915L446.703 306.623ZM423.91 258.077L450.228 239.942L443.794 273.527L423.91 258.077ZM427.375 222.36L443.278 208.147L450.074 234.297L427.375 222.36ZM421.939 196.849L434.656 182.463L441.846 203.491L421.939 196.849ZM405.851 176.198L397.12 185.882L393.333 171.827L416.643 163.145L405.851 176.198ZM390.37 169.882L372.496 174.094L390.9 153.575L390.37 169.882ZM333.248 177.59L348.344 155.506L365.759 175.259L333.248 177.59ZM330.48 176.819L314.206 155.279L345.598 154.699L330.48 176.819ZM291.195 176.896L274.178 152.786L308.805 155.134L291.195 176.896ZM255.856 179.993L243.624 151.997L269.271 152.577L255.856 179.993ZM223.802 174.711L209.091 154.477L238.835 152.142L223.802 174.711ZM205.893 154.708L221.469 176.13L195.259 180.79L203.868 154.826L205.893 154.708ZM192.781 179.68L174.872 156.535L200.963 154.998L192.781 179.68ZM172.883 158.426L190.498 181.171H167.623L172.883 158.426ZM146.904 209.507L132.515 192.809L162.87 184.748L146.904 209.507ZM144.852 211.293L121.483 222.151L130.603 194.768L144.852 211.293ZM141.132 247.912L129.806 261.595L121.651 228.993L141.132 247.912ZM142.985 249.943L157.066 266.854H131.133L130.635 264.873L142.985 249.943ZM144.612 322.287L116.921 338.863L122.226 305.712L144.612 322.287ZM136.733 360.647L116.477 376.928V344.366L136.733 360.647ZM137.839 394.913L116.477 411.152V382.137L137.839 394.913ZM138.255 430.439L143.157 445.699H121.37L138.255 430.439ZM145.767 449.743L159.662 463.648L140.208 472.525L145.767 449.743ZM250.424 465.611L233.493 483.683L221.641 467.307L250.424 465.611ZM253.74 466.065L267.858 481.325L236.791 484.15L253.74 466.065ZM286.184 462.664L296.314 483.56L273.177 481.293L286.184 462.664ZM324.205 465.348L339.269 485.061L302.182 483.891L324.205 465.348ZM360.064 465.416L368.568 486.407L344.756 485.274L360.064 465.416ZM362.602 464.437L383.207 467.783L370.974 485.056L362.602 464.437ZM419.977 450.079L422.695 474.924L408.845 465.743L419.977 450.079ZM425.74 427.002L439.785 449.671L422.514 445.355L425.74 427.002ZM427.579 401.736L450.029 421.303L426.469 421.861L427.579 401.736ZM427.502 396.59L424.055 364.337L445.262 385.6L427.502 396.59ZM424.58 361.005L444.805 350.641L445.96 382.445L424.58 361.005ZM447.401 345.908L446.803 311.248L476.202 326.209L447.401 345.908ZM448.194 308.904L477.502 291.037V323.797L448.194 308.904ZM477.502 286.657L447.414 275.5L477.479 250.714L477.502 286.657ZM446.771 272.507L453.223 238.817L476.243 248.211L446.771 272.507ZM453.005 234.624L445.987 207.703L475.953 217.323L453.005 234.624ZM444.705 203.377L437.148 181.348L468.785 184L444.705 203.377ZM435.223 177.504L423.321 161.055L450.808 156.25L435.223 177.504ZM393.147 168.989L393.7 151.797L416.973 160.117L393.147 168.989ZM368.627 174.362L351.053 154.436L389.11 151.507L368.627 174.362ZM314.015 152.564L329.234 128.58L345.63 151.974L314.015 152.564ZM273.72 150.066L286.623 128.435L308.253 152.409L273.72 150.066ZM243.737 149.259L254.574 128.757L268.818 149.816L243.737 149.259ZM208.874 151.766L217.577 128.585L238.459 149.44L208.874 151.766ZM201.86 152.219L174.301 153.842L184.957 128.73L202.536 150.174L201.86 152.219ZM165.049 180.224L147.099 167.217L170.273 157.596L165.049 180.224ZM144.766 168.889L162.798 181.96L132.841 189.912L144.766 168.889ZM118.42 222.714L97.0179 210.98L127.713 194.827L118.42 222.714ZM118.42 227.197L127.663 264.197L126.394 265.748L96.2205 246.942L118.42 227.197ZM123.902 267.411L95.3144 281.956V249.58L123.902 267.411ZM95.3144 286.784L118.873 303.291L95.3144 319.798V286.784ZM119.381 306.247L114.162 338.84L96.1208 322.546L119.381 306.247ZM113.758 376.705L95.9849 360.647L113.758 344.589V376.705ZM113.758 410.835L96.1299 394.886L113.758 382.382V410.835ZM114.026 417.182L116.291 444.806L97.5298 435.857L114.026 417.182ZM143.289 448.415L137.598 471.75L120.504 448.419L143.289 448.415ZM161.022 466.001L164.134 481.148L142.097 474.633L161.022 466.001ZM188.772 470.018L198.118 484.87L169.951 482.123L188.772 470.018ZM218.977 468.254L230.757 484.508L203.868 485.074L218.977 468.254ZM267.454 484.082L245.925 508.468L235.45 486.992L267.454 484.082ZM296.129 486.262L280.693 507.933L272.692 483.973L296.129 486.262ZM338.54 487.745L313.907 508.804L301.004 486.589L338.54 487.745ZM367.853 489.105L352.018 508.251L344.108 487.958L367.853 489.105ZM385.44 469.352L394.216 485.274L373.375 486.371L385.44 469.352ZM407.4 468.091L421.196 477.24L399.136 484.199L407.4 468.091ZM422.482 448.188L440.406 452.672L425.282 473.98L422.482 448.188ZM427.403 424.577L451.564 424.005L442.358 448.76L427.403 424.577ZM428.64 399.088L446.413 388.085L451.573 419.068L428.64 399.088ZM448.697 383.47L447.51 350.8L476.143 366.242L448.697 383.47ZM448.674 348.333L477.479 328.612V363.875L448.674 348.333ZM477.479 245.808L454.908 236.596L477.479 219.576V245.808ZM422.342 158.48L423.248 134.692C433.611 139.143 443.041 145.511 451.043 153.461L422.342 158.48ZM419.624 158.204L395.58 149.59L420.498 135.082L419.624 158.204ZM351.162 151.698L369.388 128.2L389.382 148.755L351.162 151.698ZM348.262 151L331.793 127.492H366.516L348.262 151ZM311.324 151.729L289.46 127.492H326.706L311.324 151.729ZM271.346 148.705L256.989 127.483H284.005L271.346 148.705ZM241.177 148.297L220.336 127.483H252.168L241.177 148.297ZM206.418 150.596L187.467 127.474H215.103L206.418 150.596ZM171.483 153.534L139.393 139.819C152.48 132.088 167.334 127.853 182.528 127.519L171.483 153.534ZM168.701 155.302L145.214 165.045L138.514 142.376L168.701 155.302ZM129.679 189.976L108.933 173.187L141.798 168.617L129.679 189.976ZM95.3189 325.47L113.092 341.528L95.3189 357.587V325.47ZM112.952 379.639L95.3189 392.165V363.707L112.952 379.639ZM95.3189 420.583V397.837L113.21 414.004L96.216 433.241C95.6189 429.048 95.3191 424.818 95.3189 420.583ZM118.543 450.324L135.546 473.554H113.709L118.543 450.324ZM162.811 483.596L142.251 497.801L139.8 476.791L162.811 483.596ZM165.258 485.21L174.246 509.316C163.628 508.086 153.319 504.943 143.819 500.04L165.258 485.21ZM167.976 484.666L197.765 487.573L176.847 508.428L167.976 484.666ZM230.498 487.242L213.282 508.409L202.925 487.826L230.498 487.242ZM233.117 488.33L243.642 509.919H215.552L233.117 488.33ZM270.195 485.106L278.491 509.937H248.267L270.195 485.106ZM298.485 487.663L311.406 509.937H282.623L298.485 487.663ZM341.525 488.797L349.753 509.919H316.793L341.525 488.797ZM370.358 490.352L380.176 509.937H354.179L370.358 490.352ZM372.782 489.128L394.012 488.008L382.282 508.069L372.782 489.128ZM422.464 479.666L416.991 503.722L399.091 487.083L422.464 479.666ZM425.301 479.457L447.274 487.495C439.16 494.68 429.81 500.331 419.678 504.17L425.301 479.457ZM426.456 476.986L441.964 455.147L448.076 484.893L426.456 476.986ZM453.821 425.715L469.836 452.745L444.565 450.609L453.821 425.715ZM454.577 420.524L449.326 389.01L476.288 409.548L454.577 420.524ZM449.806 385.959L477.479 368.59V407.04L449.806 385.959ZM418.826 132.901L392.612 148.18L372.492 127.492H388.204C398.65 127.483 409.016 129.315 418.826 132.905V132.901ZM135.614 142.177L142.591 165.752L108.272 170.531C115.182 159.175 124.52 149.492 135.614 142.177ZM114.841 476.275H137.014L139.533 497.665C130.068 492.101 121.7 484.851 114.841 476.275ZM179.357 509.76L200.374 488.792L210.962 509.919H184.594C182.836 509.919 181.088 509.86 179.357 509.76ZM384.335 509.919L396.771 488.652L415.17 505.748C406.449 508.519 397.354 509.926 388.204 509.919H384.335ZM450.722 484.29L444.379 453.325L470.38 455.524C465.769 466.306 459.091 476.079 450.722 484.29ZM472.079 451.194L455.447 423.13L477.479 411.996V420.578C477.49 431.023 475.662 441.388 472.079 451.199V451.194Z" fill="url(#paint1_linear_182_18545)"/>
<g opacity="0.3">
<path style="mix-blend-mode:color-dodge" opacity="0.3" d="M190.251 64.7231C200.202 54.7657 200.202 38.6215 190.251 28.6641C180.301 18.7067 164.167 18.7067 154.217 28.6641C144.266 38.6215 144.266 54.7657 154.217 64.7231C164.167 74.6805 180.301 74.6805 190.251 64.7231Z" fill="url(#paint2_radial_182_18545)"/>
</g>
<g opacity="0.1">
<path style="mix-blend-mode:color-dodge" d="M162.226 106.973C174.056 99.347 177.468 83.568 169.847 71.7299C162.226 59.8918 146.458 56.4774 134.628 64.1036C122.798 71.7298 119.386 87.5088 127.007 99.3469C134.628 111.185 150.396 114.599 162.226 106.973Z" fill="url(#paint3_radial_182_18545)"/>
</g>
<g opacity="0.2">
<path style="mix-blend-mode:color-dodge" opacity="0.3" d="M185.704 99.0584C199.381 95.7447 207.784 81.9634 204.473 68.2769C201.162 54.5905 187.39 46.1816 173.713 49.4952C160.035 52.8089 151.632 66.5902 154.944 80.2767C158.255 93.9632 172.027 102.372 185.704 99.0584Z" fill="url(#paint4_radial_182_18545)"/>
</g>
<path d="M150.515 86.4167L149.673 84.0683L179.774 73.2554L171.646 47.9347L174.02 47.1685L182.515 73.6407C182.614 73.9487 182.589 74.2831 182.446 74.5732C182.303 74.8634 182.054 75.0866 181.749 75.1958L150.515 86.4167Z" fill="url(#paint5_linear_182_18545)"/>
<path style="mix-blend-mode:color-dodge" opacity="0.1" d="M422.648 96.4369C429.352 84.0556 424.756 68.5803 412.383 61.8718C400.011 55.1633 384.546 59.762 377.842 72.1432C371.138 84.5245 375.734 99.9998 388.106 106.708C400.479 113.417 415.944 108.818 422.648 96.4369Z" fill="url(#paint6_radial_182_18545)"/>
<g opacity="0.3">
<path style="mix-blend-mode:color-dodge" opacity="0.5" d="M412.77 48.4504C417.315 35.123 410.202 20.6325 396.884 16.0851C383.565 11.5377 369.085 18.6553 364.54 31.9828C359.996 45.3102 367.109 59.8007 380.427 64.3481C393.746 68.8955 408.226 61.7779 412.77 48.4504Z" fill="url(#paint7_radial_182_18545)"/>
</g>
<g opacity="0.3">
<path style="mix-blend-mode:color-dodge" opacity="0.4" d="M393.213 88.6794C403.164 78.722 403.164 62.5778 393.213 52.6204C383.262 42.663 367.129 42.663 357.179 52.6204C347.228 62.5778 347.228 78.722 357.179 88.6794C367.129 98.6368 383.262 98.6368 393.213 88.6794Z" fill="url(#paint8_radial_182_18545)"/>
</g>
<path d="M386.605 41.1433L388.87 42.1589L375.863 71.3922L399.762 83.0257L398.674 85.2925L373.688 73.1286C373.398 72.9863 373.175 72.7375 373.064 72.4342C372.954 72.1309 372.965 71.7965 373.095 71.501L386.605 41.1433Z" fill="url(#paint9_linear_182_18545)"/>
<g opacity="0.3">
<path style="mix-blend-mode:color-dodge" opacity="0.5" d="M49.2267 233.938C60.1237 233.829 68.8691 224.901 68.7601 213.997C68.6512 203.092 59.7291 194.341 48.8321 194.45C37.9351 194.559 29.1897 203.487 29.2986 214.391C29.4076 225.296 38.3297 234.047 49.2267 233.938Z" fill="url(#paint10_radial_182_18545)"/>
</g>
<g opacity="0.3">
<path style="mix-blend-mode:color-dodge" opacity="0.3" d="M37.9771 240.517C41.5015 230.199 35.9995 218.975 25.6882 215.448C15.3768 211.922 4.16082 217.427 0.636489 227.746C-2.88784 238.064 2.6141 249.288 12.9254 252.815C23.2368 256.341 34.4528 250.836 37.9771 240.517Z" fill="url(#paint11_radial_182_18545)"/>
</g>
<g opacity="0.3">
<path style="mix-blend-mode:color-dodge" opacity="0.5" d="M30.9165 222.374C28.1784 225.156 26.3263 228.688 25.5943 232.524C24.8624 236.36 25.2835 240.326 26.8044 243.922C28.3253 247.519 30.8777 250.583 34.1388 252.727C37.3999 254.872 41.2233 256.001 45.1255 255.971C49.0277 255.941 52.8334 254.754 56.0614 252.56C59.2894 250.366 61.7948 247.263 63.2607 243.644C64.7265 240.025 65.0871 236.052 64.2967 232.228C63.5064 228.404 61.6006 224.901 58.8204 222.16C55.0914 218.487 50.0571 216.445 44.8244 216.485C39.5916 216.525 34.589 218.643 30.9165 222.374Z" fill="url(#paint12_radial_182_18545)"/>
</g>
<path d="M20.5007 235.43L20.6593 233.504L45.3375 235.544L47.7251 215.083L49.6415 215.31L47.1497 236.695C47.1255 236.948 47.0032 237.18 46.8091 237.343C46.615 237.506 46.3647 237.586 46.1122 237.566L20.5007 235.43Z" fill="url(#paint13_linear_182_18545)"/>
<path style="mix-blend-mode:color-dodge" opacity="0.2" d="M536.841 226.891C541.327 216.953 536.914 205.258 526.983 200.769C517.052 196.28 505.365 200.697 500.879 210.635C496.393 220.572 500.807 232.267 510.738 236.756C520.668 241.245 532.355 236.829 536.841 226.891Z" fill="url(#paint14_radial_182_18545)"/>
<g opacity="0.2">
<path style="mix-blend-mode:color-dodge" d="M567.809 238.672C567.903 227.768 559.145 218.853 548.248 218.759C537.352 218.666 528.443 227.43 528.349 238.334C528.256 249.238 537.014 258.153 547.911 258.246C558.807 258.34 567.716 249.576 567.809 238.672Z" fill="url(#paint15_radial_182_18545)"/>
</g>
<path style="mix-blend-mode:color-dodge" opacity="0.1" d="M536.468 226.73C539.207 229.512 541.059 233.045 541.792 236.881C542.524 240.716 542.104 244.684 540.583 248.28C539.062 251.877 536.51 254.941 533.248 257.086C529.987 259.231 526.164 260.36 522.261 260.33C518.359 260.3 514.553 259.113 511.324 256.919C508.096 254.724 505.591 251.621 504.125 248.002C502.66 244.382 502.299 240.409 503.09 236.585C503.881 232.761 505.788 229.257 508.568 226.517C512.297 222.844 517.33 220.803 522.562 220.843C527.794 220.883 532.796 223 536.468 226.73Z" fill="url(#paint16_radial_182_18545)"/>
<path d="M546.884 239.787L546.725 237.861L522.047 239.896L519.65 219.431L517.734 219.653L520.226 241.039C520.256 241.288 520.382 241.515 520.576 241.674C520.77 241.833 521.018 241.91 521.268 241.891L546.884 239.787Z" fill="url(#paint17_linear_182_18545)"/>
<path style="mix-blend-mode:color-dodge" d="M48.5542 445.958C47.9924 438.872 42.2113 433.182 35.6556 433.263C29.0998 433.345 24.2339 439.116 24.7821 446.202C25.3303 453.289 31.125 458.974 37.6762 458.897C44.2274 458.82 49.116 453.039 48.5542 445.958Z" fill="url(#paint18_radial_182_18545)"/>
<path style="mix-blend-mode:color-dodge" d="M50.0141 441.743C55.952 439.182 58.4604 431.753 55.6167 425.149C52.7731 418.545 45.6542 415.266 39.7163 417.827C33.7785 420.387 31.2701 427.816 34.1137 434.42C36.9574 441.025 44.0762 444.303 50.0141 441.743Z" fill="url(#paint19_radial_182_18545)"/>
<path style="mix-blend-mode:color-dodge" d="M62.6608 444.772C68.5987 442.212 71.1071 434.783 68.2635 428.179C65.4198 421.575 58.301 418.296 52.3631 420.856C46.4252 423.417 43.9168 430.846 46.7605 437.45C49.6041 444.054 56.7229 447.333 62.6608 444.772Z" fill="url(#paint20_radial_182_18545)"/>
<path style="mix-blend-mode:color-dodge" d="M75.2349 423.375C74.6731 416.294 68.8921 410.599 62.3363 410.681C55.7805 410.762 50.9192 416.538 51.4629 423.62C52.0066 430.702 57.8057 436.391 64.3615 436.314C70.9173 436.237 75.7967 430.457 75.2349 423.375Z" fill="url(#paint21_radial_182_18545)"/>
<path d="M34.9397 446.497L44.7575 429.473L55.7759 431.998L62.1233 423.212L63.8585 424.468L56.682 434.406L45.8222 431.921L36.7972 447.567L34.9397 446.497Z" fill="url(#paint22_linear_182_18545)"/>
<path style="mix-blend-mode:color-dodge" d="M524.847 428.245C525.409 421.163 531.19 415.469 537.741 415.55C544.292 415.632 549.163 421.408 548.615 428.489C548.066 435.571 542.272 441.261 535.716 441.184C529.16 441.107 524.281 435.326 524.847 428.245Z" fill="url(#paint23_radial_182_18545)"/>
<path style="mix-blend-mode:color-dodge" d="M539.231 416.637C542.075 410.033 539.567 402.603 533.629 400.043C527.691 397.483 520.572 400.761 517.728 407.365C514.885 413.97 517.393 421.399 523.331 423.959C529.269 426.519 536.388 423.241 539.231 416.637Z" fill="url(#paint24_radial_182_18545)"/>
<path style="mix-blend-mode:color-dodge" d="M526.601 419.692C529.445 413.087 526.936 405.658 520.998 403.098C515.061 400.538 507.942 403.816 505.098 410.42C502.254 417.024 504.763 424.454 510.701 427.014C516.639 429.574 523.757 426.296 526.601 419.692Z" fill="url(#paint25_radial_182_18545)"/>
<path style="mix-blend-mode:color-dodge" d="M498.166 405.662C498.728 398.58 504.509 392.89 511.06 392.968C517.612 393.045 522.482 398.825 521.934 405.907C521.386 412.988 515.591 418.683 509.035 418.601C502.479 418.52 497.6 412.744 498.166 405.662Z" fill="url(#paint26_radial_182_18545)"/>
<path d="M538.461 428.784L528.644 411.764L517.625 414.285L511.278 405.499L509.538 406.755L516.719 416.697L527.574 414.208L536.604 429.854L538.461 428.784Z" fill="url(#paint27_linear_182_18545)"/>
<path d="M546.05 368.458L545.438 368.286C533.971 365.058 521.879 352.872 517.906 340.599C516.166 335.208 515.188 327.392 520.493 320.773C524.031 316.348 527.991 314.136 532.272 314.19C538.253 314.258 543.123 318.724 545.411 321.294C547.636 318.687 552.388 314.072 558.364 313.845H558.663H558.822C562.94 313.845 566.809 315.958 570.325 320.129C575.793 326.608 575.032 334.447 573.433 339.878C569.808 352.278 558.029 364.75 546.634 368.282L546.05 368.458ZM532.141 318.47C529.269 318.47 526.478 320.143 523.836 323.457C519.732 328.589 520.561 334.9 521.979 339.289C525.481 350.142 535.942 360.86 545.991 363.993C555.958 360.597 566.13 349.612 569.346 338.672C570.647 334.243 571.313 327.914 567.081 322.89C564.363 319.717 561.581 318.103 558.745 318.13H558.554C552.805 318.347 547.921 325.035 547.713 325.32L545.534 328.349L543.268 325.379C543.055 325.098 537.999 318.542 532.245 318.474L532.141 318.47Z" fill="url(#paint28_linear_182_18545)"/>
<g opacity="0.2">
<path style="mix-blend-mode:color-dodge" d="M523.184 343.763C535.55 343.763 545.574 333.732 545.574 321.358C545.574 308.984 535.55 298.952 523.184 298.952C510.818 298.952 500.794 308.984 500.794 321.358C500.794 333.732 510.818 343.763 523.184 343.763Z" fill="url(#paint29_radial_182_18545)"/>
</g>
<path style="mix-blend-mode:color-dodge" opacity="0.2" d="M564.381 377.562C578.386 377.562 589.739 366.201 589.739 352.187C589.739 338.173 578.386 326.812 564.381 326.812C550.376 326.812 539.023 338.173 539.023 352.187C539.023 366.201 550.376 377.562 564.381 377.562Z" fill="url(#paint30_radial_182_18545)"/>
<path d="M293.818 77.4536H264.858C264.566 77.4536 264.286 77.3376 264.08 77.131C263.873 76.9244 263.757 76.6441 263.757 76.352V41.991L269.915 49.4172C270.362 49.9386 270.996 50.2631 271.68 50.3207C272.364 50.3783 273.043 50.1642 273.571 49.7249C274.098 49.2855 274.432 48.6561 274.5 47.9725C274.568 47.2889 274.364 46.606 273.933 46.0714L261.406 30.9741L248.861 46.0487C248.43 46.5833 248.226 47.2662 248.294 47.9498C248.362 48.6334 248.696 49.2628 249.223 49.7022C249.751 50.1416 250.43 50.3556 251.114 50.298C251.799 50.2405 252.433 49.9159 252.88 49.3946L258.547 42.594V76.3656C258.547 78.0489 259.216 79.6634 260.405 80.8537C261.595 82.044 263.208 82.7127 264.89 82.7127H293.85C294.543 82.7127 295.208 82.4371 295.698 81.9465C296.188 81.456 296.464 80.7906 296.464 80.0968C296.464 79.403 296.188 78.7376 295.698 78.247C295.208 77.7565 294.543 77.4808 293.85 77.4808L293.818 77.4536Z" fill="url(#paint31_linear_182_18545)"/>
<path d="M319.262 65.9789C318.998 65.7588 318.694 65.5928 318.366 65.4905C318.038 65.3882 317.693 65.3516 317.351 65.3828C317.009 65.414 316.676 65.5123 316.372 65.6721C316.068 65.832 315.798 66.0502 315.579 66.3144L309.431 73.7179V38.083C309.431 36.3996 308.762 34.7852 307.573 33.5949C306.383 32.4046 304.77 31.7358 303.088 31.7358H276.629C276.286 31.7358 275.946 31.8035 275.629 31.935C275.311 32.0664 275.023 32.2591 274.781 32.502C274.538 32.7449 274.345 33.0333 274.214 33.3507C274.083 33.6681 274.015 34.0083 274.015 34.3518C274.015 34.6953 274.083 35.0355 274.214 35.3529C274.345 35.6702 274.538 35.9586 274.781 36.2015C275.023 36.4445 275.311 36.6371 275.629 36.7686C275.946 36.9001 276.286 36.9677 276.629 36.9677H303.088C303.234 36.9671 303.379 36.9956 303.514 37.0516C303.649 37.1075 303.771 37.1898 303.874 37.2936C303.977 37.3974 304.058 37.5207 304.113 37.6562C304.168 37.7917 304.195 37.9368 304.193 38.083V73.1285L298.525 66.328C298.078 65.8066 297.444 65.4821 296.76 65.4245C296.076 65.367 295.397 65.581 294.869 66.0203C294.342 66.4597 294.008 67.0892 293.94 67.7728C293.872 68.4564 294.076 69.1392 294.507 69.6739L307.052 84.7484L319.597 69.6739C319.819 69.4099 319.987 69.1045 320.09 68.7754C320.193 68.4463 320.231 68.1 320.199 67.7564C320.168 67.4129 320.069 67.0789 319.908 66.7738C319.747 66.4687 319.528 66.1985 319.262 65.9789Z" fill="url(#paint32_linear_182_18545)"/>
<g opacity="0.3">
<path style="mix-blend-mode:color-dodge" d="M279.563 64.7617C292.727 51.589 292.727 30.2318 279.563 17.0592C266.4 3.88649 245.057 3.88649 231.893 17.0592C218.73 30.2318 218.73 51.589 231.894 64.7616C245.057 77.9343 266.4 77.9343 279.563 64.7617Z" fill="url(#paint33_radial_182_18545)"/>
</g>
<g opacity="0.3">
<path style="mix-blend-mode:color-dodge" opacity="0.5" d="M333.97 101.691C347.134 88.5179 347.134 67.1608 333.97 53.9881C320.806 40.8154 299.464 40.8154 286.3 53.9881C273.137 67.1608 273.137 88.5179 286.3 101.691C299.464 114.863 320.806 114.863 333.97 101.691Z" fill="url(#paint34_radial_182_18545)"/>
</g>
<path d="M57.9507 162.211V146.135H49.3425C44.7875 146.126 40.4214 144.312 37.2005 141.089C33.9795 137.866 32.1663 133.497 32.158 128.938V120.17C32.1663 115.612 33.9795 111.243 37.2005 108.02C40.4214 104.797 44.7875 102.982 49.3425 102.974H71.4382C75.9933 102.982 80.3594 104.797 83.5803 108.02C86.8012 111.243 88.6144 115.612 88.6228 120.17V128.938C88.6253 131.379 88.1015 133.791 87.0869 136.011C86.5161 138.101 84.3052 141.905 73.5903 150.609C67.6597 155.42 61.8107 159.514 61.77 159.554L57.9507 162.211ZM49.3425 107.807C46.0733 107.812 42.9393 109.113 40.6276 111.427C38.3159 113.74 37.015 116.876 37.0102 120.148V128.938C37.0138 132.21 38.3143 135.347 40.6263 137.661C42.9382 139.974 46.0729 141.276 49.3425 141.279H62.8165V152.808C72.3716 145.763 81.7861 137.543 82.434 134.646L82.4929 134.388L82.6062 134.143C83.3746 132.516 83.7723 130.738 83.7705 128.938V120.17C83.7658 116.899 82.4649 113.763 80.1532 111.449C77.8415 109.136 74.7075 107.834 71.4382 107.829L49.3425 107.807Z" fill="url(#paint35_linear_182_18545)"/>
<g opacity="0.3">
<path style="mix-blend-mode:color-dodge" opacity="0.3" d="M60.5047 133.553C73.6684 120.381 73.6684 99.0236 60.5047 85.8509C47.3411 72.6782 25.9986 72.6782 12.8349 85.8509C-0.328749 99.0236 -0.328744 120.381 12.8349 133.553C25.9986 146.726 47.3411 146.726 60.5047 133.553Z" fill="url(#paint36_radial_182_18545)"/>
</g>
<path style="mix-blend-mode:color-dodge" opacity="0.2" d="M107.594 162.415C120.758 149.242 120.758 127.885 107.594 114.712C94.4304 101.54 73.0879 101.54 59.9243 114.712C46.7606 127.885 46.7606 149.242 59.9243 162.415C73.0879 175.588 94.4304 175.588 107.594 162.415Z" fill="url(#paint37_radial_182_18545)"/>
<path d="M517.308 137.548C515.843 137.549 514.397 137.881 513.078 138.52C511.759 139.16 510.602 140.089 509.692 141.238L494.931 134.51C495.42 133.301 495.658 132.006 495.631 130.702C495.605 129.398 495.314 128.113 494.777 126.925L510.1 117.128C511.691 118.891 513.867 120.017 516.225 120.298C518.582 120.578 520.961 119.995 522.922 118.655C524.882 117.315 526.291 115.31 526.888 113.01C527.484 110.711 527.228 108.273 526.166 106.148C525.104 104.023 523.309 102.355 521.113 101.453C518.917 100.551 516.468 100.476 514.221 101.241C511.974 102.007 510.08 103.561 508.889 105.617C507.699 107.673 507.294 110.09 507.748 112.422L491.407 122.85C489.934 121.827 488.209 121.23 486.42 121.125C484.631 121.02 482.848 121.41 481.266 122.252C479.684 123.095 478.365 124.358 477.453 125.902C476.542 127.445 476.073 129.211 476.098 131.004C476.124 132.797 476.643 134.548 477.598 136.066C478.554 137.583 479.908 138.807 481.514 139.604C483.119 140.401 484.913 140.74 486.698 140.584C488.483 140.427 490.191 139.782 491.633 138.718L507.658 146.021C507.6 146.431 507.57 146.845 507.567 147.259C507.567 149.187 508.139 151.071 509.209 152.674C510.279 154.277 511.8 155.527 513.58 156.264C515.36 157.002 517.319 157.195 519.208 156.819C521.098 156.443 522.834 155.515 524.196 154.152C525.558 152.788 526.486 151.051 526.862 149.161C527.237 147.27 527.045 145.31 526.307 143.529C525.57 141.748 524.322 140.225 522.72 139.154C521.118 138.083 519.235 137.512 517.308 137.512V137.548ZM517.308 106.079C518.204 106.079 519.08 106.345 519.825 106.843C520.57 107.342 521.151 108.05 521.494 108.878C521.837 109.707 521.926 110.618 521.752 111.498C521.577 112.377 521.145 113.185 520.512 113.819C519.878 114.453 519.071 114.885 518.192 115.06C517.313 115.235 516.402 115.145 515.574 114.802C514.746 114.459 514.039 113.877 513.541 113.132C513.043 112.386 512.777 111.51 512.777 110.613C512.78 109.412 513.258 108.261 514.108 107.413C514.957 106.565 516.108 106.088 517.308 106.088V106.079ZM485.893 135.417C484.997 135.417 484.121 135.151 483.376 134.653C482.631 134.155 482.05 133.447 481.707 132.618C481.364 131.79 481.274 130.878 481.449 129.999C481.624 129.119 482.056 128.312 482.689 127.677C483.323 127.043 484.13 126.612 485.009 126.437C485.888 126.262 486.799 126.352 487.627 126.695C488.455 127.038 489.162 127.619 489.66 128.365C490.158 129.11 490.423 129.987 490.423 130.883C490.423 132.086 489.946 133.239 489.096 134.089C488.247 134.939 487.094 135.417 485.893 135.417ZM517.308 151.815C516.412 151.815 515.536 151.549 514.791 151.051C514.046 150.553 513.465 149.845 513.122 149.017C512.779 148.188 512.69 147.277 512.864 146.397C513.039 145.518 513.471 144.71 514.104 144.076C514.738 143.442 515.545 143.01 516.424 142.835C517.303 142.66 518.214 142.75 519.042 143.093C519.87 143.436 520.577 144.017 521.075 144.763C521.573 145.508 521.839 146.385 521.839 147.282C521.839 148.484 521.361 149.637 520.512 150.487C519.662 151.338 518.51 151.815 517.308 151.815Z" fill="url(#paint38_linear_182_18545)"/>
<path style="mix-blend-mode:color-dodge" opacity="0.3" d="M505.52 151.837C523.876 148.736 536.246 131.332 533.147 112.963C530.049 94.5934 512.657 82.2155 494.3 85.3158C475.943 88.4161 463.574 105.821 466.672 124.19C469.77 142.559 487.163 154.937 505.52 151.837Z" fill="url(#paint39_radial_182_18545)"/>
<path style="mix-blend-mode:color-dodge" opacity="0.3" d="M547.958 174.343C561.122 161.171 561.122 139.814 547.958 126.641C534.795 113.468 513.452 113.468 500.289 126.641C487.125 139.814 487.125 161.171 500.289 174.343C513.452 187.516 534.795 187.516 547.958 174.343Z" fill="url(#paint40_radial_182_18545)"/>
<path d="M69.7618 323.611V316.697H60.619L64.5108 300.879H56.8315L52.9986 316.697H41.5588L45.4506 300.879H37.7486L33.9701 316.697H22.3219V323.611H32.2439L29.2673 335.947H18.8469V343.179H27.5683L23.595 359.155H31.297L35.1888 343.179H46.6104L42.6416 359.155H50.3436L54.2354 343.179H66.2642V335.947H55.9299L58.8884 323.611H69.7618ZM51.3268 323.611L48.3321 335.947H36.8651L39.8598 323.611H51.3268Z" fill="url(#paint41_linear_182_18545)"/>
<g opacity="0.3">
<path style="mix-blend-mode:color-dodge" d="M33.3615 351.119C51.691 347.862 63.9112 330.352 60.6561 312.01C57.401 293.668 39.9033 281.439 21.5739 284.697C3.24445 287.954 -8.97574 305.464 -5.72068 323.806C-2.46561 342.148 15.0321 354.376 33.3615 351.119Z" fill="url(#paint42_radial_182_18545)"/>
</g>
<g opacity="0.3">
<path style="mix-blend-mode:color-dodge" d="M71.2326 373.359C88.4516 366.278 96.674 346.57 89.5979 329.339C82.5219 312.108 62.8269 303.88 45.6079 310.961C28.3889 318.042 20.1665 337.751 27.2425 354.981C34.3186 372.212 54.0136 380.44 71.2326 373.359Z" fill="url(#paint43_radial_182_18545)"/>
</g>
<path style="mix-blend-mode:color-dodge" d="M388.204 126.132H184.594C134.536 126.132 93.9824 166.74 93.9824 216.829V420.582C93.9824 470.671 134.558 511.279 184.594 511.279H388.204C438.263 511.279 478.839 470.671 478.839 420.582V216.829C478.839 166.74 438.263 126.132 388.204 126.132ZM383.895 277.716C380.905 281.711 379.415 286.906 379.696 292.356C381.508 328.331 377.666 364.723 350.7 389.028C318.677 417.885 266.127 421.471 223.879 414.834C204.878 411.855 185.641 401.904 180.2 398.925L165.924 387.949L181.373 384.231C198.272 378.668 208.557 377.032 221.274 371.628C208.539 365.453 194.186 355.261 189.46 340.898L185.863 329.976L193.338 329.523C190.833 326.99 188.584 324.216 186.624 321.24C180.54 311.996 175.506 300.689 176.204 291L177.336 281.479L184.386 283.669C181.976 279.107 180.237 274.221 179.221 269.161C176.729 256.753 178.818 243.56 185.111 232.03L190.095 222.899L196.741 230.888C217.758 256.154 247.099 269.782 278.695 274.167C275.786 254.123 281.78 235.63 298.018 225.624C317.844 213.433 345.589 216.892 364.228 233.676C371.282 231.84 398.914 221.675 399.349 221.517L390.379 247.164C392.096 247.023 391.738 247.078 406.92 246.375C406.838 246.438 389.876 269.728 383.895 277.716Z" fill="url(#paint44_linear_182_18545)"/>
<path style="mix-blend-mode:screen" d="M476.732 512.639C476.732 526.295 420.145 537.366 299.404 537.366C178.664 537.366 107.126 526.63 107.126 512.975C107.126 499.319 178.659 487.912 299.404 487.912C420.149 487.912 476.732 498.979 476.732 512.639Z" fill="url(#paint45_radial_182_18545)"/>
<path style="mix-blend-mode:color-dodge" opacity="0.2" d="M273.575 519.798C333.603 519.798 382.264 514.293 382.264 507.503C382.264 500.712 333.603 495.207 273.575 495.207C213.548 495.207 164.886 500.712 164.886 507.503C164.886 514.293 213.548 519.798 273.575 519.798Z" fill="url(#paint46_radial_182_18545)"/>
<path style="mix-blend-mode:screen" d="M476.732 130.117C476.732 143.773 420.145 154.844 299.404 154.844C178.664 154.844 107.126 144.108 107.126 130.453C107.126 116.797 178.659 105.39 299.404 105.39C420.149 105.39 476.732 116.475 476.732 130.117Z" fill="url(#paint47_radial_182_18545)"/>
<path style="mix-blend-mode:color-dodge" d="M273.575 137.294C333.603 137.294 382.264 131.789 382.264 124.999C382.264 118.208 333.603 112.703 273.575 112.703C213.548 112.703 164.886 118.208 164.886 124.999C164.886 131.789 213.548 137.294 273.575 137.294Z" fill="url(#paint48_radial_182_18545)"/>
<path style="mix-blend-mode:color-dodge" opacity="0.4" d="M508.812 221.945C544.86 185.873 544.86 127.387 508.812 91.3149C472.764 55.2423 414.319 55.2423 378.271 91.3149C342.223 127.387 342.223 185.873 378.271 221.945C414.319 258.018 472.764 258.018 508.812 221.945Z" fill="url(#paint49_radial_182_18545)"/>
<g opacity="0.2">
<path style="mix-blend-mode:color-dodge" d="M195.812 559.945C231.86 523.873 231.86 465.388 195.812 429.315C159.764 393.242 101.319 393.242 65.2707 429.315C29.2228 465.388 29.2228 523.873 65.2707 559.945C101.319 596.018 159.764 596.018 195.812 559.945Z" fill="url(#paint50_radial_182_18545)"/>
</g>
<g opacity="0.25">
<path style="mix-blend-mode:color-dodge" d="M269.235 356.199C320.215 356.199 361.542 314.844 361.542 263.83C361.542 212.815 320.215 171.46 269.235 171.46C218.256 171.46 176.929 212.815 176.929 263.83C176.929 314.844 218.256 356.199 269.235 356.199Z" fill="url(#paint51_radial_182_18545)"/>
</g>
<path style="mix-blend-mode:color-dodge" opacity="0.15" d="M407.92 462.419C443.968 426.347 443.968 367.861 407.92 331.789C371.872 295.716 313.427 295.716 277.379 331.789C241.331 367.861 241.331 426.347 277.379 462.419C313.427 498.492 371.872 498.492 407.92 462.419Z" fill="url(#paint52_radial_182_18545)"/>
<path style="mix-blend-mode:screen" d="M271.473 612C422.685 612 545.266 593.652 545.266 571.02C545.266 548.387 422.685 530.04 271.473 530.04C120.262 530.04 -2.31982 548.387 -2.31982 571.02C-2.31982 593.652 120.262 612 271.473 612Z" fill="url(#paint53_radial_182_18545)"/>
<path style="mix-blend-mode:color-dodge" d="M267.722 586.135C342.898 586.135 403.839 577.013 403.839 565.76C403.839 554.508 342.898 545.386 267.722 545.386C192.547 545.386 131.605 554.508 131.605 565.76C131.605 577.013 192.547 586.135 267.722 586.135Z" fill="url(#paint54_radial_182_18545)"/>
<g opacity="0.2">
<path style="mix-blend-mode:color-dodge" d="M212.666 556.523C237.763 554.038 256.095 531.665 253.612 506.551C251.13 481.437 228.772 463.092 203.675 465.576C178.578 468.061 160.245 490.434 162.728 515.548C165.211 540.663 187.569 559.007 212.666 556.523Z" fill="url(#paint55_radial_182_18545)"/>
</g>
<g opacity="0.2">
<path style="mix-blend-mode:color-dodge" d="M461.476 540.738C479.309 522.893 479.309 493.961 461.476 476.116C443.643 458.271 414.73 458.271 396.897 476.116C379.064 493.961 379.064 522.893 396.897 540.738C414.73 558.583 443.643 558.583 461.476 540.738Z" fill="url(#paint56_radial_182_18545)"/>
</g>
<g opacity="0.2">
<path style="mix-blend-mode:color-dodge" d="M360.722 588.515C385.941 588.515 406.385 568.057 406.385 542.82C406.385 517.583 385.941 497.125 360.722 497.125C335.502 497.125 315.058 517.583 315.058 542.82C315.058 568.057 335.502 588.515 360.722 588.515Z" fill="url(#paint57_radial_182_18545)"/>
</g>
<g opacity="0.3">
<path style="mix-blend-mode:color-dodge" opacity="0.2" d="M299.183 574.696C311.02 574.696 320.617 565.093 320.617 553.248C320.617 541.402 311.02 531.799 299.183 531.799C287.345 531.799 277.748 541.402 277.748 553.248C277.748 565.093 287.345 574.696 299.183 574.696Z" fill="url(#paint58_radial_182_18545)"/>
</g>
<g opacity="0.2">
<path style="mix-blend-mode:color-dodge" d="M241.336 580.886C252.273 576.353 257.467 563.806 252.937 552.862C248.406 541.917 235.868 536.72 224.931 541.254C213.995 545.787 208.801 558.334 213.331 569.278C217.861 580.222 230.4 585.419 241.336 580.886Z" fill="url(#paint59_radial_182_18545)"/>
</g>
<g opacity="0.2">
<path style="mix-blend-mode:color-dodge" opacity="0.3" d="M159.249 576.832C170.77 574.11 177.905 562.558 175.186 551.029C172.467 539.5 160.923 532.36 149.401 535.081C137.88 537.802 130.745 549.354 133.464 560.883C136.183 572.412 147.727 579.553 159.249 576.832Z" fill="url(#paint60_radial_182_18545)"/>
</g>
<g opacity="0.25">
<path style="mix-blend-mode:color-dodge" d="M187.185 208.486C200.06 195.602 200.06 174.713 187.185 161.829C174.31 148.945 153.435 148.945 140.56 161.829C127.685 174.713 127.685 195.602 140.56 208.486C153.435 221.37 174.31 221.37 187.185 208.486Z" fill="url(#paint61_radial_182_18545)"/>
</g>
<g opacity="0.25">
<path style="mix-blend-mode:color-dodge" d="M336.616 178.825C349.492 165.941 349.492 145.052 336.616 132.168C323.741 119.284 302.866 119.284 289.991 132.168C277.116 145.052 277.116 165.941 289.991 178.825C302.866 191.709 323.741 191.709 336.616 178.825Z" fill="url(#paint62_radial_182_18545)"/>
</g>
<g opacity="0.25">
<path style="mix-blend-mode:color-dodge" d="M403.483 225.873C416.358 212.989 416.358 192.1 403.483 179.216C390.607 166.332 369.732 166.332 356.857 179.216C343.982 192.1 343.982 212.989 356.857 225.873C369.732 238.757 390.607 238.757 403.483 225.873Z" fill="url(#paint63_radial_182_18545)"/>
</g>
<g opacity="0.25">
<path style="mix-blend-mode:color-dodge" d="M423.901 358.906C442.109 358.906 456.87 344.135 456.87 325.914C456.87 307.693 442.109 292.922 423.901 292.922C405.692 292.922 390.932 307.693 390.932 325.914C390.932 344.135 405.692 358.906 423.901 358.906Z" fill="url(#paint64_radial_182_18545)"/>
</g>
<g opacity="0.25">
<path style="mix-blend-mode:color-dodge" d="M319.111 465.413C322.028 447.428 309.823 430.481 291.85 427.562C273.877 424.642 256.942 436.856 254.024 454.841C251.107 472.827 263.312 489.773 281.285 492.693C299.258 495.612 316.193 483.399 319.111 465.413Z" fill="url(#paint65_radial_182_18545)"/>
</g>
<g opacity="0.4">
<path style="mix-blend-mode:color-dodge" d="M412.101 487.755C424.976 474.871 424.976 453.982 412.101 441.098C399.226 428.214 378.351 428.214 365.476 441.098C352.6 453.982 352.6 474.871 365.476 487.755C378.351 500.639 399.226 500.639 412.101 487.755Z" fill="url(#paint66_radial_182_18545)"/>
</g>
<g opacity="0.25">
<path style="mix-blend-mode:color-dodge" d="M210.778 491.014C223.653 478.13 223.653 457.24 210.778 444.356C197.903 431.472 177.028 431.472 164.153 444.356C151.277 457.24 151.277 478.13 164.153 491.014C177.028 503.898 197.903 503.898 210.778 491.014Z" fill="url(#paint67_radial_182_18545)"/>
</g>
<g opacity="0.25">
<path style="mix-blend-mode:color-dodge" d="M137.839 391.947C156.047 391.947 170.808 377.176 170.808 358.956C170.808 340.735 156.047 325.964 137.839 325.964C119.63 325.964 104.87 340.735 104.87 358.956C104.87 377.176 119.63 391.947 137.839 391.947Z" fill="url(#paint68_radial_182_18545)"/>
</g>
<g opacity="0.25">
<path style="mix-blend-mode:color-dodge" d="M159.365 322.055C176.188 315.082 184.176 295.783 177.208 278.949C170.24 262.115 150.954 254.121 134.132 261.094C117.31 268.067 109.321 287.366 116.289 304.2C123.257 321.034 142.543 329.028 159.365 322.055Z" fill="url(#paint69_radial_182_18545)"/>
</g>
<g opacity="0.25">
<path style="mix-blend-mode:color-dodge" d="M254.57 216.883C272.778 216.883 287.539 202.112 287.539 183.891C287.539 165.671 272.778 150.9 254.57 150.9C236.361 150.9 221.601 165.671 221.601 183.891C221.601 202.112 236.361 216.883 254.57 216.883Z" fill="url(#paint70_radial_182_18545)"/>
</g>
<g opacity="0.25">
<path style="mix-blend-mode:color-dodge" d="M222.699 183.28C239.521 176.308 247.509 157.009 240.541 140.175C233.573 123.341 214.287 115.347 197.465 122.32C180.643 129.292 172.654 148.592 179.622 165.425C186.59 182.259 205.876 190.253 222.699 183.28Z" fill="url(#paint71_radial_182_18545)"/>
</g>
<g opacity="0.25">
<path style="mix-blend-mode:color-dodge" d="M378.742 489.322C381.656 471.283 369.404 454.297 351.378 451.382C333.352 448.466 316.377 460.726 313.463 478.765C310.55 496.803 322.801 513.79 340.828 516.705C358.854 519.621 375.829 507.361 378.742 489.322Z" fill="url(#paint72_radial_182_18545)"/>
</g>
<g opacity="0.25">
<path style="mix-blend-mode:color-dodge" d="M245.693 518.808C262.515 511.835 270.504 492.536 263.536 475.702C256.568 458.868 237.282 450.874 220.459 457.847C203.637 464.82 195.648 484.119 202.617 500.953C209.585 517.787 228.87 525.781 245.693 518.808Z" fill="url(#paint73_radial_182_18545)"/>
</g>
<g opacity="0.25">
<path style="mix-blend-mode:color-dodge" d="M215.629 376.121C228.505 363.237 228.505 342.348 215.629 329.464C202.754 316.58 181.879 316.58 169.004 329.464C156.129 342.348 156.129 363.237 169.004 376.121C181.879 389.006 202.754 389.005 215.629 376.121Z" fill="url(#paint74_radial_182_18545)"/>
</g>
<path style="mix-blend-mode:color-dodge" opacity="0.4" d="M238.047 248.414C250.922 235.53 250.922 214.64 238.047 201.756C225.171 188.872 204.296 188.872 191.421 201.756C178.546 214.64 178.546 235.53 191.421 248.414C204.296 261.298 225.171 261.298 238.047 248.414Z" fill="url(#paint75_radial_182_18545)"/>
<g opacity="0.25">
<path style="mix-blend-mode:color-dodge" d="M403.517 184.056C420.339 177.083 428.328 157.784 421.36 140.95C414.392 124.116 395.106 116.122 378.283 123.095C361.461 130.068 353.472 149.367 360.44 166.201C367.409 183.035 386.694 191.029 403.517 184.056Z" fill="url(#paint76_radial_182_18545)"/>
</g>
<defs>
<radialGradient id="paint0_radial_182_18545" cx="0" cy="0" r="1" gradientUnits="userSpaceOnUse" gradientTransform="translate(269.91 340.413) scale(180.939 181.062)">
<stop stop-color="#1E1E1E"/>
<stop offset="1" stop-color="#3A3A3A"/>
</radialGradient>
<linearGradient id="paint1_linear_182_18545" x1="101.168" y1="538.35" x2="414.932" y2="166.798" gradientUnits="userSpaceOnUse">
<stop stop-color="white"/>
<stop offset="1" stop-color="#999B9B"/>
</linearGradient>
<radialGradient id="paint2_radial_182_18545" cx="0" cy="0" r="1" gradientUnits="userSpaceOnUse" gradientTransform="translate(174.211 28.3496) rotate(-159.817) scale(25.6189 25.6323)">
<stop stop-color="white"/>
<stop offset="0.22" stop-color="#B2B2B2"/>
<stop offset="0.43" stop-color="#737373"/>
<stop offset="0.62" stop-color="#414141"/>
<stop offset="0.78" stop-color="#1E1E1E"/>
<stop offset="0.91" stop-color="#080808"/>
<stop offset="1"/>
</radialGradient>
<radialGradient id="paint3_radial_182_18545" cx="0" cy="0" r="1" gradientUnits="userSpaceOnUse" gradientTransform="translate(170.657 74.808) rotate(-159.491) scale(25.5413 25.5545)">
<stop stop-color="white"/>
<stop offset="0.22" stop-color="#B2B2B2"/>
<stop offset="0.43" stop-color="#737373"/>
<stop offset="0.62" stop-color="#414141"/>
<stop offset="0.78" stop-color="#1E1E1E"/>
<stop offset="0.91" stop-color="#080808"/>
<stop offset="1"/>
</radialGradient>
<radialGradient id="paint4_radial_182_18545" cx="0" cy="0" r="1" gradientUnits="userSpaceOnUse" gradientTransform="translate(190.631 69.7333) rotate(-159.691) scale(25.5059 25.5192)">
<stop stop-color="white"/>
<stop offset="0.22" stop-color="#B2B2B2"/>
<stop offset="0.43" stop-color="#737373"/>
<stop offset="0.62" stop-color="#414141"/>
<stop offset="0.78" stop-color="#1E1E1E"/>
<stop offset="0.91" stop-color="#080808"/>
<stop offset="1"/>
</radialGradient>
<linearGradient id="paint5_linear_182_18545" x1="156.88" y1="64.8546" x2="182.736" y2="74.3099" gradientUnits="userSpaceOnUse">
<stop offset="0.13" stop-color="white"/>
<stop offset="0.53" stop-color="#D6D6D6"/>
<stop offset="0.97" stop-color="white"/>
</linearGradient>
<radialGradient id="paint6_radial_182_18545" cx="0" cy="0" r="1" gradientUnits="userSpaceOnUse" gradientTransform="translate(404.277 107.323) rotate(-25.9375) scale(25.6179 25.6287)">
<stop stop-color="white"/>
<stop offset="0.22" stop-color="#B2B2B2"/>
<stop offset="0.43" stop-color="#737373"/>
<stop offset="0.62" stop-color="#414141"/>
<stop offset="0.78" stop-color="#1E1E1E"/>
<stop offset="0.91" stop-color="#080808"/>
<stop offset="1"/>
</radialGradient>
<radialGradient id="paint7_radial_182_18545" cx="0" cy="0" r="1" gradientUnits="userSpaceOnUse" gradientTransform="translate(392.524 43.6195) rotate(-26.1755) scale(25.5214 25.532)">
<stop stop-color="white"/>
<stop offset="0.22" stop-color="#B2B2B2"/>
<stop offset="0.43" stop-color="#737373"/>
<stop offset="0.62" stop-color="#414141"/>
<stop offset="0.78" stop-color="#1E1E1E"/>
<stop offset="0.91" stop-color="#080808"/>
<stop offset="1"/>
</radialGradient>
<radialGradient id="paint8_radial_182_18545" cx="0" cy="0" r="1" gradientUnits="userSpaceOnUse" gradientTransform="translate(348.504 73.9507) rotate(-25.8364) scale(25.3532 25.364)">
<stop stop-color="white"/>
<stop offset="0.22" stop-color="#B2B2B2"/>
<stop offset="0.43" stop-color="#737373"/>
<stop offset="0.62" stop-color="#414141"/>
<stop offset="0.78" stop-color="#1E1E1E"/>
<stop offset="0.91" stop-color="#080808"/>
<stop offset="1"/>
</radialGradient>
<linearGradient id="paint9_linear_182_18545" x1="397.839" y1="60.7648" x2="373.124" y2="72.8962" gradientUnits="userSpaceOnUse">
<stop offset="0.13" stop-color="white"/>
<stop offset="0.53" stop-color="#CDCDCD"/>
<stop offset="0.97" stop-color="white"/>
</linearGradient>
<radialGradient id="paint10_radial_182_18545" cx="0" cy="0" r="1" gradientUnits="userSpaceOnUse" gradientTransform="translate(50.3248 209.634) rotate(-135.553) scale(19.7683 19.7686)">
<stop stop-color="white"/>
<stop offset="0.22" stop-color="#B2B2B2"/>
<stop offset="0.43" stop-color="#737373"/>
<stop offset="0.62" stop-color="#414141"/>
<stop offset="0.78" stop-color="#1E1E1E"/>
<stop offset="0.91" stop-color="#080808"/>
<stop offset="1"/>
</radialGradient>
<radialGradient id="paint11_radial_182_18545" cx="0" cy="0" r="1" gradientUnits="userSpaceOnUse" gradientTransform="translate(27.9345 240.125) rotate(-135.244) scale(19.7161 19.7163)">
<stop stop-color="white"/>
<stop offset="0.22" stop-color="#B2B2B2"/>
<stop offset="0.43" stop-color="#737373"/>
<stop offset="0.62" stop-color="#414141"/>
<stop offset="0.78" stop-color="#1E1E1E"/>
</radialGradient>
<radialGradient id="paint12_radial_182_18545" cx="0" cy="0" r="1" gradientUnits="userSpaceOnUse" gradientTransform="translate(69.4818 238.369) rotate(-134.98) scale(19.7674 19.7674)">
<stop stop-color="white"/>
<stop offset="0.22" stop-color="#B2B2B2"/>
<stop offset="0.43" stop-color="#737373"/>
<stop offset="0.62" stop-color="#414141"/>
<stop offset="0.78" stop-color="#1E1E1E"/>
<stop offset="0.91" stop-color="#080808"/>
<stop offset="1"/>
</radialGradient>
<linearGradient id="paint13_linear_182_18545" x1="32.0355" y1="222.238" x2="47.2367" y2="237.192" gradientUnits="userSpaceOnUse">
<stop offset="0.13" stop-color="white"/>
<stop offset="0.53" stop-color="#D6D6D6"/>
<stop offset="0.97" stop-color="white"/>
</linearGradient>
<radialGradient id="paint14_radial_182_18545" cx="0" cy="0" r="1" gradientUnits="userSpaceOnUse" gradientTransform="translate(520.26 249.674) rotate(-44.7851) scale(19.569 19.5691)">
<stop stop-color="white"/>
<stop offset="0.22" stop-color="#B2B2B2"/>
<stop offset="0.43" stop-color="#737373"/>
<stop offset="0.62" stop-color="#414141"/>
<stop offset="0.78" stop-color="#1E1E1E"/>
<stop offset="0.91" stop-color="#080808"/>
<stop offset="1"/>
</radialGradient>
<radialGradient id="paint15_radial_182_18545" cx="0" cy="0" r="1" gradientUnits="userSpaceOnUse" gradientTransform="translate(548.477 232.74) rotate(-44.5296) scale(19.7673 19.7676)">
<stop stop-color="white"/>
<stop offset="0.22" stop-color="#B2B2B2"/>
<stop offset="0.43" stop-color="#737373"/>
<stop offset="0.62" stop-color="#414141" stop-opacity="0.67"/>
<stop offset="0.78" stop-color="#1E1E1E" stop-opacity="0"/>
<stop offset="0.91" stop-color="#080808" stop-opacity="0.37"/>
<stop offset="1" stop-opacity="0.48"/>
</radialGradient>
<radialGradient id="paint16_radial_182_18545" cx="0" cy="0" r="1" gradientUnits="userSpaceOnUse" gradientTransform="translate(530.684 258.169) rotate(-44.5796) scale(19.6224 19.6226)">
<stop stop-color="white"/>
<stop offset="0.22" stop-color="#B2B2B2"/>
<stop offset="0.43" stop-color="#737373" stop-opacity="0.93"/>
<stop offset="0.62" stop-color="#414141" stop-opacity="0.68"/>
<stop offset="0.78" stop-color="#1E1E1E" stop-opacity="0.14"/>
<stop offset="0.91" stop-color="#080808" stop-opacity="0.17"/>
<stop offset="1" stop-opacity="0"/>
</radialGradient>
<linearGradient id="paint17_linear_182_18545" x1="540.944" y1="224.061" x2="525.799" y2="238.982" gradientUnits="userSpaceOnUse">
<stop offset="0.13" stop-color="white"/>
<stop offset="0.53" stop-color="#D6D6D6"/>
<stop offset="0.97" stop-color="white"/>
</linearGradient>
<radialGradient id="paint18_radial_182_18545" cx="0" cy="0" r="1" gradientUnits="userSpaceOnUse" gradientTransform="translate(44.1806 425.209) rotate(-0.855683) scale(11.8732 12.781)">
<stop stop-color="white"/>
<stop offset="0.22" stop-color="#B2B2B2"/>
<stop offset="0.43" stop-color="#737373"/>
<stop offset="0.62" stop-color="#414141"/>
<stop offset="0.78" stop-color="#1E1E1E"/>
<stop offset="0.91" stop-color="#080808"/>
<stop offset="1"/>
</radialGradient>
<radialGradient id="paint19_radial_182_18545" cx="0" cy="0" r="1" gradientUnits="userSpaceOnUse" gradientTransform="translate(64.9009 434.259) rotate(-0.559402) scale(11.9128 12.8598)">
<stop stop-color="white"/>
<stop offset="0.22" stop-color="#B2B2B2"/>
<stop offset="0.43" stop-color="#737373"/>
<stop offset="0.62" stop-color="#414141"/>
<stop offset="0.78" stop-color="#1E1E1E"/>
<stop offset="0.91" stop-color="#080808"/>
<stop offset="1"/>
</radialGradient>
<radialGradient id="paint20_radial_182_18545" cx="0" cy="0" r="1" gradientUnits="userSpaceOnUse" gradientTransform="translate(77.5513 437.34) rotate(-0.559408) scale(11.9128 12.8598)">
<stop stop-color="white"/>
<stop offset="0.22" stop-color="#B2B2B2"/>
<stop offset="0.43" stop-color="#737373"/>
<stop offset="0.62" stop-color="#414141"/>
<stop offset="0.78" stop-color="#1E1E1E"/>
<stop offset="0.91" stop-color="#080808"/>
<stop offset="1"/>
</radialGradient>
<radialGradient id="paint21_radial_182_18545" cx="0" cy="0" r="1" gradientUnits="userSpaceOnUse" gradientTransform="translate(70.7773 402.58) rotate(-0.855683) scale(11.8732 12.781)">
<stop stop-color="white"/>
<stop offset="0.22" stop-color="#B2B2B2"/>
<stop offset="0.43" stop-color="#737373"/>
<stop offset="0.62" stop-color="#414141"/>
<stop offset="0.78" stop-color="#1E1E1E"/>
<stop offset="0.91" stop-color="#080808"/>
<stop offset="1"/>
</radialGradient>
<linearGradient id="paint22_linear_182_18545" x1="65.3719" y1="427.879" x2="32.9731" y2="441.829" gradientUnits="userSpaceOnUse">
<stop offset="0.13" stop-color="white"/>
<stop offset="0.53" stop-color="#D6D6D6"/>
<stop offset="0.97" stop-color="white"/>
</linearGradient>
<radialGradient id="paint23_radial_182_18545" cx="0" cy="0" r="1" gradientUnits="userSpaceOnUse" gradientTransform="translate(529.517 404.545) rotate(-179.144) scale(11.8732 12.781)">
<stop stop-color="white"/>
<stop offset="0.22" stop-color="#B2B2B2"/>
<stop offset="0.43" stop-color="#737373"/>
<stop offset="0.62" stop-color="#414141"/>
<stop offset="0.78" stop-color="#1E1E1E"/>
<stop offset="0.91" stop-color="#080808"/>
<stop offset="1"/>
</radialGradient>
<radialGradient id="paint24_radial_182_18545" cx="0" cy="0" r="1" gradientUnits="userSpaceOnUse" gradientTransform="translate(506.824 416.365) rotate(-179.441) scale(11.9128 12.8598)">
<stop stop-color="white"/>
<stop offset="0.22" stop-color="#B2B2B2"/>
<stop offset="0.43" stop-color="#737373"/>
<stop offset="0.62" stop-color="#414141"/>
<stop offset="0.78" stop-color="#1E1E1E"/>
<stop offset="0.91" stop-color="#080808"/>
<stop offset="1"/>
</radialGradient>
<radialGradient id="paint25_radial_182_18545" cx="0" cy="0" r="1" gradientUnits="userSpaceOnUse" gradientTransform="translate(494.18 419.468) rotate(-179.441) scale(11.9128 12.8598)">
<stop stop-color="white"/>
<stop offset="0.22" stop-color="#B2B2B2"/>
<stop offset="0.43" stop-color="#737373"/>
<stop offset="0.62" stop-color="#414141"/>
<stop offset="0.78" stop-color="#1E1E1E"/>
<stop offset="0.91" stop-color="#080808"/>
<stop offset="1"/>
</radialGradient>
<radialGradient id="paint26_radial_182_18545" cx="0" cy="0" r="1" gradientUnits="userSpaceOnUse" gradientTransform="translate(502.92 381.916) rotate(-179.144) scale(11.8732 12.781)">
<stop stop-color="white"/>
<stop offset="0.22" stop-color="#B2B2B2"/>
<stop offset="0.43" stop-color="#737373"/>
<stop offset="0.62" stop-color="#414141"/>
<stop offset="0.78" stop-color="#1E1E1E"/>
<stop offset="0.91" stop-color="#080808"/>
<stop offset="1"/>
</radialGradient>
<linearGradient id="paint27_linear_182_18545" x1="507.592" y1="410.302" x2="540.048" y2="424.404" gradientUnits="userSpaceOnUse">
<stop offset="0.13" stop-color="white"/>
<stop offset="0.53" stop-color="#D6D6D6"/>
<stop offset="0.97" stop-color="white"/>
</linearGradient>
<linearGradient id="paint28_linear_182_18545" x1="516.524" y1="341.147" x2="574.624" y2="341.147" gradientUnits="userSpaceOnUse">
<stop stop-color="white"/>
<stop offset="1" stop-color="#D6D6D6"/>
</linearGradient>
<radialGradient id="paint29_radial_182_18545" cx="0" cy="0" r="1" gradientUnits="userSpaceOnUse" gradientTransform="translate(523.184 321.353) rotate(180) scale(22.3902 22.4056)">
<stop stop-color="white"/>
<stop offset="0.22" stop-color="#B2B2B2"/>
<stop offset="0.43" stop-color="#737373"/>
<stop offset="0.62" stop-color="#414141"/>
<stop offset="0.78" stop-color="#1E1E1E"/>
<stop offset="0.91" stop-color="#080808"/>
<stop offset="1"/>
</radialGradient>
<radialGradient id="paint30_radial_182_18545" cx="0" cy="0" r="1" gradientUnits="userSpaceOnUse" gradientTransform="translate(564.381 352.183) rotate(180) scale(25.3577 25.3751)">
<stop stop-color="white"/>
<stop offset="0.22" stop-color="#B2B2B2"/>
<stop offset="0.43" stop-color="#737373"/>
<stop offset="0.62" stop-color="#414141"/>
<stop offset="0.78" stop-color="#1E1E1E"/>
<stop offset="0.91" stop-color="#080808"/>
<stop offset="1"/>
</radialGradient>
<linearGradient id="paint31_linear_182_18545" x1="248.24" y1="56.8298" x2="296.432" y2="56.8298" gradientUnits="userSpaceOnUse">
<stop stop-color="white"/>
<stop offset="1" stop-color="#D6D6D6"/>
</linearGradient>
<linearGradient id="paint32_linear_182_18545" x1="274.019" y1="58.2489" x2="320.2" y2="58.2489" gradientUnits="userSpaceOnUse">
<stop stop-color="white"/>
<stop offset="1" stop-color="#D6D6D6"/>
</linearGradient>
<radialGradient id="paint33_radial_182_18545" cx="0" cy="0" r="1" gradientUnits="userSpaceOnUse" gradientTransform="translate(254.66 43.7) rotate(-162.321) scale(33.7721 33.791)">
<stop stop-color="white"/>
<stop offset="0.22" stop-color="#B2B2B2"/>
<stop offset="0.43" stop-color="#737373"/>
<stop offset="0.62" stop-color="#414141"/>
<stop offset="0.78" stop-color="#1E1E1E"/>
<stop offset="0.91" stop-color="#080808"/>
<stop offset="1"/>
</radialGradient>
<radialGradient id="paint34_radial_182_18545" cx="0" cy="0" r="1" gradientUnits="userSpaceOnUse" gradientTransform="translate(309.001 80.9527) rotate(-162.321) scale(33.7721 33.791)">
<stop stop-color="white"/>
<stop offset="0.22" stop-color="#B2B2B2"/>
<stop offset="0.43" stop-color="#737373"/>
<stop offset="0.62" stop-color="#414141"/>
<stop offset="0.78" stop-color="#1E1E1E"/>
<stop offset="0.91" stop-color="#080808"/>
<stop offset="1"/>
</radialGradient>
<linearGradient id="paint35_linear_182_18545" x1="32.1444" y1="132.593" x2="88.6092" y2="132.593" gradientUnits="userSpaceOnUse">
<stop stop-color="white"/>
<stop offset="1" stop-color="#D6D6D6"/>
</linearGradient>
<radialGradient id="paint36_radial_182_18545" cx="0" cy="0" r="1" gradientUnits="userSpaceOnUse" gradientTransform="translate(34.8748 111.612) rotate(-162.321) scale(33.7721 33.791)">
<stop stop-color="white"/>
<stop offset="0.22" stop-color="#B2B2B2"/>
<stop offset="0.43" stop-color="#737373"/>
<stop offset="0.62" stop-color="#414141"/>
<stop offset="0.78" stop-color="#1E1E1E"/>
<stop offset="0.91" stop-color="#080808"/>
<stop offset="1"/>
</radialGradient>
<radialGradient id="paint37_radial_182_18545" cx="0" cy="0" r="1" gradientUnits="userSpaceOnUse" gradientTransform="translate(81.9216 140.74) rotate(-162.321) scale(33.7721 33.791)">
<stop stop-color="white"/>
<stop offset="0.22" stop-color="#B2B2B2"/>
<stop offset="0.43" stop-color="#737373"/>
<stop offset="0.62" stop-color="#414141"/>
<stop offset="0.78" stop-color="#1E1E1E"/>
<stop offset="0.91" stop-color="#080808"/>
<stop offset="1"/>
</radialGradient>
<linearGradient id="paint38_linear_182_18545" x1="476.152" y1="128.947" x2="527.049" y2="128.947" gradientUnits="userSpaceOnUse">
<stop stop-color="white"/>
<stop offset="1" stop-color="#B1B1B1"/>
</linearGradient>
<radialGradient id="paint39_radial_182_18545" cx="0" cy="0" r="1" gradientUnits="userSpaceOnUse" gradientTransform="translate(499.434 115.35) rotate(-162.747) scale(33.6185 33.6375)">
<stop stop-color="white"/>
<stop offset="0.22" stop-color="#B2B2B2"/>
<stop offset="0.43" stop-color="#737373"/>
<stop offset="0.62" stop-color="#414141"/>
<stop offset="0.78" stop-color="#1E1E1E"/>
<stop offset="0.91" stop-color="#080808"/>
<stop offset="1"/>
</radialGradient>
<radialGradient id="paint40_radial_182_18545" cx="0" cy="0" r="1" gradientUnits="userSpaceOnUse" gradientTransform="translate(523.051 154.726) rotate(-162.321) scale(33.7721 33.791)">
<stop stop-color="white"/>
<stop offset="0.22" stop-color="#B2B2B2"/>
<stop offset="0.43" stop-color="#737373"/>
<stop offset="0.62" stop-color="#414141"/>
<stop offset="0.78" stop-color="#1E1E1E"/>
<stop offset="0.91" stop-color="#080808"/>
<stop offset="1"/>
</radialGradient>
<linearGradient id="paint41_linear_182_18545" x1="18.8288" y1="330.013" x2="69.7391" y2="330.013" gradientUnits="userSpaceOnUse">
<stop stop-color="white"/>
<stop offset="1" stop-color="#D6D6D6"/>
</linearGradient>
<radialGradient id="paint42_radial_182_18545" cx="0" cy="0" r="1" gradientUnits="userSpaceOnUse" gradientTransform="translate(29.5804 318.659) rotate(-162.727) scale(33.772 33.791)">
<stop stop-color="white"/>
<stop offset="0.22" stop-color="#B2B2B2"/>
<stop offset="0.43" stop-color="#737373"/>
<stop offset="0.62" stop-color="#414141"/>
<stop offset="0.78" stop-color="#1E1E1E"/>
<stop offset="0.91" stop-color="#080808"/>
<stop offset="1"/>
</radialGradient>
<radialGradient id="paint43_radial_182_18545" cx="0" cy="0" r="1" gradientUnits="userSpaceOnUse" gradientTransform="translate(58.8411 343.026) rotate(-162.597) scale(33.7518 33.7708)">
<stop stop-color="white"/>
<stop offset="0.22" stop-color="#B2B2B2"/>
<stop offset="0.43" stop-color="#737373"/>
<stop offset="0.62" stop-color="#414141"/>
<stop offset="0.78" stop-color="#1E1E1E"/>
<stop offset="0.91" stop-color="#080808"/>
<stop offset="1"/>
</radialGradient>
<linearGradient id="paint44_linear_182_18545" x1="-5.19238" y1="321.426" x2="650.816" y2="315.318" gradientUnits="userSpaceOnUse">
<stop offset="0.13" stop-color="#141414"/>
<stop offset="0.2" stop-color="#1E1D1D"/>
<stop offset="0.31" stop-color="#303030"/>
<stop offset="0.39" stop-color="#2F2F2F"/>
<stop offset="0.46" stop-color="#2E2D2D"/>
<stop offset="0.49" stop-color="#212121"/>
<stop offset="0.52" stop-color="#282727"/>
<stop offset="0.55" stop-color="#2F2E2E"/>
<stop offset="0.59"/>
<stop offset="0.63" stop-color="#242424"/>
<stop offset="0.67" stop-color="#2F2E2E"/>
<stop offset="0.71" stop-color="#212121"/>
<stop offset="0.75" stop-color="#363636"/>
<stop offset="0.81" stop-color="#292929"/>
<stop offset="0.88" stop-color="#272727"/>
</linearGradient>
<radialGradient id="paint45_radial_182_18545" cx="0" cy="0" r="1" gradientUnits="userSpaceOnUse" gradientTransform="translate(292.683 623.232) scale(182.507 20.0086)">
<stop stop-color="white"/>
<stop offset="0.22" stop-color="#E2E2E2"/>
<stop offset="0.43" stop-color="#C4C4C5"/>
<stop offset="0.62" stop-color="#A5A4A6"/>
<stop offset="0.78" stop-color="#7B7A7B"/>
<stop offset="0.88"/>
</radialGradient>
<radialGradient id="paint46_radial_182_18545" cx="0" cy="0" r="1" gradientUnits="userSpaceOnUse" gradientTransform="translate(274.316 618.048) scale(97.6672 10.7075)">
<stop stop-color="white"/>
<stop offset="0.16" stop-color="#E6E4E7"/>
<stop offset="0.39" stop-color="#C2C1C2"/>
<stop offset="0.6" stop-color="#8E8E8E"/>
<stop offset="0.77" stop-color="#4F4F4F"/>
<stop offset="0.88" stop-color="#1A1A1A"/>
</radialGradient>
<radialGradient id="paint47_radial_182_18545" cx="0" cy="0" r="1" gradientUnits="userSpaceOnUse" gradientTransform="translate(292.683 237.028) scale(182.507 20.0086)">
<stop stop-color="#E2E2E2"/>
<stop offset="0.05" stop-color="#E2E2E2"/>
<stop offset="0.23" stop-color="#EEEEEE"/>
<stop offset="0.4" stop-color="#F5F5F5"/>
<stop offset="0.55" stop-color="#01383C"/>
<stop offset="0.69" stop-color="#01191B"/>
<stop offset="0.8" stop-color="#000707"/>
<stop offset="0.88"/>
</radialGradient>
<radialGradient id="paint48_radial_182_18545" cx="0" cy="0" r="1" gradientUnits="userSpaceOnUse" gradientTransform="translate(274.316 231.844) scale(97.6672 10.7075)">
<stop stop-color="white"/>
<stop offset="0.05" stop-color="#05DAE9"/>
<stop offset="0.23" stop-color="#0399A3"/>
<stop offset="0.4" stop-color="#026269"/>
<stop offset="0.55" stop-color="#01383C"/>
<stop offset="0.69" stop-color="#01191B"/>
<stop offset="0.8" stop-color="#000707"/>
<stop offset="0.88"/>
</radialGradient>
<radialGradient id="paint49_radial_182_18545" cx="0" cy="0" r="1" gradientUnits="userSpaceOnUse" gradientTransform="translate(446.738 157.576) rotate(180) scale(92.6841 92.7476)">
<stop stop-color="white"/>
<stop offset="0.22" stop-color="#B2B2B2"/>
<stop offset="0.43" stop-color="#737373"/>
<stop offset="0.62" stop-color="#414141"/>
<stop offset="0.78" stop-color="#1E1E1E"/>
<stop offset="0.91" stop-color="#080808"/>
<stop offset="1"/>
</radialGradient>
<radialGradient id="paint50_radial_182_18545" cx="0" cy="0" r="1" gradientUnits="userSpaceOnUse" gradientTransform="translate(132.375 496.945) rotate(180) scale(92.6841 92.7476)">
<stop stop-color="white"/>
<stop offset="0.22" stop-color="#B2B2B2"/>
<stop offset="0.43" stop-color="#737373"/>
<stop offset="0.62" stop-color="#414141"/>
<stop offset="0.78" stop-color="#1E1E1E"/>
<stop offset="0.91" stop-color="#080808"/>
<stop offset="1"/>
</radialGradient>
<radialGradient id="paint51_radial_182_18545" cx="0" cy="0" r="1" gradientUnits="userSpaceOnUse" gradientTransform="translate(269.235 263.825) rotate(180) scale(92.3064 92.3697)">
<stop stop-color="white"/>
<stop offset="0.22" stop-color="#B2B2B2"/>
<stop offset="0.43" stop-color="#737373"/>
<stop offset="0.62" stop-color="#414141"/>
<stop offset="0.78" stop-color="#1E1E1E"/>
<stop offset="0.91" stop-color="#080808"/>
<stop offset="1"/>
</radialGradient>
<radialGradient id="paint52_radial_182_18545" cx="0" cy="0" r="1" gradientUnits="userSpaceOnUse" gradientTransform="translate(345.454 399.123) rotate(180) scale(92.6841 92.7476)">
<stop stop-color="white"/>
<stop offset="0.22" stop-color="#B2B2B2"/>
<stop offset="0.43" stop-color="#737373"/>
<stop offset="0.62" stop-color="#414141"/>
<stop offset="0.78" stop-color="#1E1E1E"/>
<stop offset="0.91" stop-color="#080808"/>
<stop offset="1"/>
</radialGradient>
<radialGradient id="paint53_radial_182_18545" cx="0" cy="0" r="1" gradientUnits="userSpaceOnUse" gradientTransform="translate(272.365 444.131) scale(246.556 34.5069)">
<stop offset="0.01" stop-color="#F8F8F8"/>
<stop offset="0.1" stop-color="#EEEDEF"/>
<stop offset="0.35" stop-color="#AFAFAF"/>
<stop offset="0.57" stop-color="#9E9D9F"/>
<stop offset="0.76" stop-color="#686868"/>
<stop offset="0.88" stop-color="#040404"/>
</radialGradient>
<radialGradient id="paint54_radial_182_18545" cx="0" cy="0" r="1" gradientUnits="userSpaceOnUse" gradientTransform="translate(268.601 439.001) scale(122.578 17.1555)">
<stop offset="0.01" stop-color="#F2F1F2"/>
<stop offset="0.1" stop-color="#DEDDDE"/>
<stop offset="0.35" stop-color="#C1C1C1"/>
<stop offset="0.57" stop-color="#A4A3A5"/>
<stop offset="0.76" stop-color="#8A898B"/>
<stop offset="0.88"/>
</radialGradient>
<radialGradient id="paint55_radial_182_18545" cx="0" cy="0" r="1" gradientUnits="userSpaceOnUse" gradientTransform="translate(210.323 514.61) rotate(-179.939) scale(45.8917 45.9231)">
<stop stop-color="white"/>
<stop offset="0.22" stop-color="#B2B2B2"/>
<stop offset="0.43" stop-color="#737373"/>
<stop offset="0.62" stop-color="#414141"/>
<stop offset="0.78" stop-color="#1E1E1E"/>
<stop offset="0.91" stop-color="#080808"/>
<stop offset="1"/>
</radialGradient>
<radialGradient id="paint56_radial_182_18545" cx="0" cy="0" r="1" gradientUnits="userSpaceOnUse" gradientTransform="translate(432.34 510.9) rotate(180) scale(45.8507 45.8822)">
<stop stop-color="white"/>
<stop offset="0.22" stop-color="#B2B2B2"/>
<stop offset="0.43" stop-color="#737373"/>
<stop offset="0.62" stop-color="#414141"/>
<stop offset="0.78" stop-color="#1E1E1E"/>
<stop offset="0.91" stop-color="#080808"/>
<stop offset="1"/>
</radialGradient>
<radialGradient id="paint57_radial_182_18545" cx="0" cy="0" r="1" gradientUnits="userSpaceOnUse" gradientTransform="translate(360.722 542.82) rotate(180) scale(45.6639 45.6952)">
<stop stop-color="#575757"/>
<stop offset="0.22" stop-color="#545454"/>
<stop offset="0.43" stop-color="#303030"/>
<stop offset="0.62" stop-color="#252525"/>
<stop offset="0.78" stop-color="#0C0C0C"/>
<stop offset="0.91"/>
<stop offset="1"/>
</radialGradient>
<radialGradient id="paint58_radial_182_18545" cx="0" cy="0" r="1" gradientUnits="userSpaceOnUse" gradientTransform="translate(299.183 553.248) rotate(180) scale(21.4343 21.4489)">
<stop stop-color="white"/>
<stop offset="0.22" stop-color="#B2B2B2"/>
<stop offset="0.43" stop-color="#737373"/>
<stop offset="0.62" stop-color="#414141"/>
<stop offset="0.78" stop-color="#1E1E1E"/>
<stop offset="0.91" stop-color="#080808"/>
<stop offset="1"/>
</radialGradient>
<radialGradient id="paint59_radial_182_18545" cx="0" cy="0" r="1" gradientUnits="userSpaceOnUse" gradientTransform="translate(231.135 557.465) rotate(179.943) scale(21.3354 21.3501)">
<stop stop-color="white"/>
<stop offset="0.22" stop-color="#B2B2B2"/>
<stop offset="0.43" stop-color="#737373"/>
<stop offset="0.62" stop-color="#414141"/>
<stop offset="0.78" stop-color="#1E1E1E"/>
<stop offset="0.91" stop-color="#080808"/>
<stop offset="1"/>
</radialGradient>
<radialGradient id="paint60_radial_182_18545" cx="0" cy="0" r="1" gradientUnits="userSpaceOnUse" gradientTransform="translate(152.135 554.425) rotate(-179.941) scale(21.3677 21.3824)">
<stop stop-color="white"/>
<stop offset="0.22" stop-color="#B2B2B2"/>
<stop offset="0.43" stop-color="#737373"/>
<stop offset="0.62" stop-color="#414141"/>
<stop offset="0.78" stop-color="#1E1E1E"/>
<stop offset="0.91" stop-color="#080808"/>
<stop offset="1"/>
</radialGradient>
<radialGradient id="paint61_radial_182_18545" cx="0" cy="0" r="1" gradientUnits="userSpaceOnUse" gradientTransform="translate(165.942 186.301) rotate(-180) scale(33.1041 33.1267)">
<stop stop-color="white"/>
<stop offset="0.22" stop-color="#B2B2B2"/>
<stop offset="0.43" stop-color="#737373"/>
<stop offset="0.62" stop-color="#414141"/>
<stop offset="0.78" stop-color="#1E1E1E"/>
<stop offset="0.91" stop-color="#080808"/>
<stop offset="1"/>
</radialGradient>
<radialGradient id="paint62_radial_182_18545" cx="0" cy="0" r="1" gradientUnits="userSpaceOnUse" gradientTransform="translate(315.985 156.527) rotate(-180) scale(33.1041 33.1267)">
<stop stop-color="white"/>
<stop offset="0.22" stop-color="#B2B2B2"/>
<stop offset="0.43" stop-color="#737373"/>
<stop offset="0.62" stop-color="#414141"/>
<stop offset="0.78" stop-color="#1E1E1E"/>
<stop offset="0.91" stop-color="#080808"/>
<stop offset="1"/>
</radialGradient>
<radialGradient id="paint63_radial_182_18545" cx="0" cy="0" r="1" gradientUnits="userSpaceOnUse" gradientTransform="translate(383.126 203.765) rotate(-180) scale(33.1041 33.1267)">
<stop stop-color="white"/>
<stop offset="0.22" stop-color="#B2B2B2"/>
<stop offset="0.43" stop-color="#737373"/>
<stop offset="0.62" stop-color="#414141"/>
<stop offset="0.78" stop-color="#1E1E1E"/>
<stop offset="0.91" stop-color="#080808"/>
<stop offset="1"/>
</radialGradient>
<radialGradient id="paint64_radial_182_18545" cx="0" cy="0" r="1" gradientUnits="userSpaceOnUse" gradientTransform="translate(423.901 325.91) rotate(180) scale(32.9692 32.9918)">
<stop stop-color="white"/>
<stop offset="0.22" stop-color="#B2B2B2"/>
<stop offset="0.43" stop-color="#737373"/>
<stop offset="0.62" stop-color="#414141"/>
<stop offset="0.78" stop-color="#1E1E1E"/>
<stop offset="0.91" stop-color="#080808"/>
<stop offset="1"/>
</radialGradient>
<radialGradient id="paint65_radial_182_18545" cx="0" cy="0" r="1" gradientUnits="userSpaceOnUse" gradientTransform="translate(287.998 462.12) rotate(-179.961) scale(33.063 33.0856)">
<stop stop-color="white"/>
<stop offset="0.22" stop-color="#B2B2B2"/>
<stop offset="0.43" stop-color="#737373"/>
<stop offset="0.62" stop-color="#414141"/>
<stop offset="0.78" stop-color="#1E1E1E"/>
<stop offset="0.91" stop-color="#080808"/>
<stop offset="1"/>
</radialGradient>
<radialGradient id="paint66_radial_182_18545" cx="0" cy="0" r="1" gradientUnits="userSpaceOnUse" gradientTransform="translate(391.779 466.721) rotate(180) scale(33.1041 33.1268)">
<stop stop-color="white"/>
<stop offset="0.22" stop-color="#B2B2B2"/>
<stop offset="0.43" stop-color="#737373"/>
<stop offset="0.62" stop-color="#414141"/>
<stop offset="0.78" stop-color="#1E1E1E"/>
<stop offset="0.91" stop-color="#080808"/>
<stop offset="1"/>
</radialGradient>
<radialGradient id="paint67_radial_182_18545" cx="0" cy="0" r="1" gradientUnits="userSpaceOnUse" gradientTransform="translate(189.632 469.991) rotate(180) scale(33.1041 33.1267)">
<stop stop-color="white"/>
<stop offset="0.22" stop-color="#B2B2B2"/>
<stop offset="0.43" stop-color="#737373"/>
<stop offset="0.62" stop-color="#414141"/>
<stop offset="0.78" stop-color="#1E1E1E"/>
<stop offset="0.91" stop-color="#080808"/>
<stop offset="1"/>
</radialGradient>
<radialGradient id="paint68_radial_182_18545" cx="0" cy="0" r="1" gradientUnits="userSpaceOnUse" gradientTransform="translate(137.839 358.956) rotate(180) scale(32.9692 32.9918)">
<stop stop-color="white"/>
<stop offset="0.22" stop-color="#B2B2B2"/>
<stop offset="0.43" stop-color="#737373"/>
<stop offset="0.62" stop-color="#414141"/>
<stop offset="0.78" stop-color="#1E1E1E"/>
<stop offset="0.91" stop-color="#080808"/>
<stop offset="1"/>
</radialGradient>
<radialGradient id="paint69_radial_182_18545" cx="0" cy="0" r="1" gradientUnits="userSpaceOnUse" gradientTransform="translate(144.876 289.304) rotate(179.943) scale(32.8172 32.8396)">
<stop stop-color="white"/>
<stop offset="0.22" stop-color="#B2B2B2"/>
<stop offset="0.43" stop-color="#737373"/>
<stop offset="0.62" stop-color="#414141"/>
<stop offset="0.78" stop-color="#1E1E1E"/>
<stop offset="0.91" stop-color="#080808"/>
<stop offset="1"/>
</radialGradient>
<radialGradient id="paint70_radial_182_18545" cx="0" cy="0" r="1" gradientUnits="userSpaceOnUse" gradientTransform="translate(254.57 183.887) rotate(180) scale(32.9692 32.9918)">
<stop stop-color="white"/>
<stop offset="0.22" stop-color="#B2B2B2"/>
<stop offset="0.43" stop-color="#737373"/>
<stop offset="0.62" stop-color="#414141"/>
<stop offset="0.78" stop-color="#1E1E1E"/>
<stop offset="0.91" stop-color="#080808"/>
<stop offset="1"/>
</radialGradient>
<radialGradient id="paint71_radial_182_18545" cx="0" cy="0" r="1" gradientUnits="userSpaceOnUse" gradientTransform="translate(207.782 151.105) rotate(179.943) scale(32.8172 32.8396)">
<stop stop-color="white"/>
<stop offset="0.22" stop-color="#B2B2B2"/>
<stop offset="0.43" stop-color="#737373"/>
<stop offset="0.62" stop-color="#414141"/>
<stop offset="0.78" stop-color="#1E1E1E"/>
<stop offset="0.91" stop-color="#080808"/>
<stop offset="1"/>
</radialGradient>
<radialGradient id="paint72_radial_182_18545" cx="0" cy="0" r="1" gradientUnits="userSpaceOnUse" gradientTransform="translate(347.69 486.148) rotate(-180) scale(33.1571 33.1798)">
<stop stop-color="white"/>
<stop offset="0.22" stop-color="#B2B2B2"/>
<stop offset="0.43" stop-color="#737373"/>
<stop offset="0.62" stop-color="#414141"/>
<stop offset="0.78" stop-color="#1E1E1E"/>
<stop offset="0.91" stop-color="#080808"/>
<stop offset="1"/>
</radialGradient>
<radialGradient id="paint73_radial_182_18545" cx="0" cy="0" r="1" gradientUnits="userSpaceOnUse" gradientTransform="translate(231.005 485.06) rotate(179.943) scale(32.8172 32.8396)">
<stop stop-color="white"/>
<stop offset="0.22" stop-color="#B2B2B2"/>
<stop offset="0.43" stop-color="#737373"/>
<stop offset="0.62" stop-color="#414141"/>
<stop offset="0.78" stop-color="#1E1E1E"/>
<stop offset="0.91" stop-color="#080808"/>
<stop offset="1"/>
</radialGradient>
<radialGradient id="paint74_radial_182_18545" cx="0" cy="0" r="1" gradientUnits="userSpaceOnUse" gradientTransform="translate(194.502 354.629) rotate(180) scale(33.1041 33.1267)">
<stop stop-color="white"/>
<stop offset="0.22" stop-color="#B2B2B2"/>
<stop offset="0.43" stop-color="#737373"/>
<stop offset="0.62" stop-color="#414141"/>
<stop offset="0.78" stop-color="#1E1E1E"/>
<stop offset="0.91" stop-color="#080808"/>
<stop offset="1"/>
</radialGradient>
<radialGradient id="paint75_radial_182_18545" cx="0" cy="0" r="1" gradientUnits="userSpaceOnUse" gradientTransform="translate(217.016 226.4) rotate(180) scale(33.1041 33.1267)">
<stop stop-color="white"/>
<stop offset="0.22" stop-color="#B2B2B2"/>
<stop offset="0.43" stop-color="#737373"/>
<stop offset="0.62" stop-color="#414141"/>
<stop offset="0.78" stop-color="#1E1E1E"/>
<stop offset="0.91" stop-color="#080808"/>
<stop offset="1"/>
</radialGradient>
<radialGradient id="paint76_radial_182_18545" cx="0" cy="0" r="1" gradientUnits="userSpaceOnUse" gradientTransform="translate(387.766 151.693) rotate(179.943) scale(32.8172 32.8396)">
<stop stop-color="white"/>
<stop offset="0.22" stop-color="#B2B2B2"/>
<stop offset="0.43" stop-color="#737373"/>
<stop offset="0.62" stop-color="#414141"/>
<stop offset="0.78" stop-color="#1E1E1E"/>
<stop offset="0.91" stop-color="#080808"/>
<stop offset="1"/>
</radialGradient>
</defs>
</svg>
